<?xml version="1.0" encoding="UTF-8" standalone="no"?>
<!-- Created with Inkscape (http://www.inkscape.org/) -->

<svg
   width="640mm"
   height="480mm"
   viewBox="0 0 640 480"
   version="1.1"
   id="svg1"
   inkscape:version="1.4 (1:1.4+202410161351+e7c3feb100)"
   sodipodi:docname="esquema_general.svg"
   xml:space="preserve"
   inkscape:export-filename="../Extras/esquema_general.png"
   inkscape:export-xdpi="300"
   inkscape:export-ydpi="300"
   xmlns:inkscape="http://www.inkscape.org/namespaces/inkscape"
   xmlns:sodipodi="http://sodipodi.sourceforge.net/DTD/sodipodi-0.dtd"
   xmlns="http://www.w3.org/2000/svg"
   xmlns:svg="http://www.w3.org/2000/svg"><sodipodi:namedview
     id="namedview1"
     pagecolor="#ffffff"
     bordercolor="#000000"
     borderopacity="0.25"
     inkscape:showpageshadow="2"
     inkscape:pageopacity="0.0"
     inkscape:pagecheckerboard="0"
     inkscape:deskcolor="#d1d1d1"
     inkscape:document-units="mm"
     inkscape:zoom="0.34612015"
     inkscape:cx="1168.6693"
     inkscape:cy="912.97776"
     inkscape:window-width="1920"
     inkscape:window-height="1008"
     inkscape:window-x="0"
     inkscape:window-y="0"
     inkscape:window-maximized="1"
     inkscape:current-layer="layer1"
     showgrid="false" /><defs
     id="defs1"><marker
       style="overflow:visible"
       id="marker31"
       refX="0"
       refY="0"
       orient="auto-start-reverse"
       inkscape:stockid="Triangle arrow"
       markerWidth="1"
       markerHeight="1"
       viewBox="0 0 1 1"
       inkscape:isstock="true"
       inkscape:collect="always"
       preserveAspectRatio="xMidYMid"><path
         transform="scale(0.5)"
         style="fill:context-stroke;fill-rule:evenodd;stroke:context-stroke;stroke-width:1pt"
         d="M 5.77,0 -2.88,5 V -5 Z"
         id="path31" /></marker><inkscape:path-effect
       effect="bspline"
       id="path-effect30"
       is_visible="true"
       lpeversion="1.3"
       weight="33.333333"
       steps="2"
       helper_size="0"
       apply_no_weight="true"
       apply_with_weight="true"
       only_selected="false"
       uniform="false" /><inkscape:path-effect
       effect="bspline"
       id="path-effect29"
       is_visible="true"
       lpeversion="1.3"
       weight="33.333333"
       steps="2"
       helper_size="0"
       apply_no_weight="true"
       apply_with_weight="true"
       only_selected="false"
       uniform="false" /><marker
       style="overflow:visible"
       id="marker28"
       refX="0"
       refY="0"
       orient="auto-start-reverse"
       inkscape:stockid="Triangle arrow"
       markerWidth="1"
       markerHeight="1"
       viewBox="0 0 1 1"
       inkscape:isstock="true"
       inkscape:collect="always"
       preserveAspectRatio="xMidYMid"><path
         transform="scale(0.5)"
         style="fill:context-stroke;fill-rule:evenodd;stroke:context-stroke;stroke-width:1pt"
         d="M 5.77,0 -2.88,5 V -5 Z"
         id="path28" /></marker><marker
       style="overflow:visible"
       id="marker26"
       refX="0"
       refY="0"
       orient="auto-start-reverse"
       inkscape:stockid="Triangle arrow"
       markerWidth="1"
       markerHeight="1"
       viewBox="0 0 1 1"
       inkscape:isstock="true"
       inkscape:collect="always"
       preserveAspectRatio="xMidYMid"><path
         transform="scale(0.5)"
         style="fill:context-stroke;fill-rule:evenodd;stroke:context-stroke;stroke-width:1pt"
         d="M 5.77,0 -2.88,5 V -5 Z"
         id="path26" /></marker><inkscape:path-effect
       effect="bspline"
       id="path-effect26"
       is_visible="true"
       lpeversion="1.3"
       weight="33.333333"
       steps="2"
       helper_size="0"
       apply_no_weight="true"
       apply_with_weight="true"
       only_selected="false"
       uniform="false" /><inkscape:path-effect
       effect="bspline"
       id="path-effect25"
       is_visible="true"
       lpeversion="1.3"
       weight="33.333333"
       steps="2"
       helper_size="0"
       apply_no_weight="true"
       apply_with_weight="true"
       only_selected="false"
       uniform="false" /><inkscape:path-effect
       effect="bspline"
       id="path-effect24"
       is_visible="true"
       lpeversion="1.3"
       weight="33.333333"
       steps="2"
       helper_size="0"
       apply_no_weight="true"
       apply_with_weight="true"
       only_selected="false"
       uniform="false" /><inkscape:path-effect
       effect="bspline"
       id="path-effect23"
       is_visible="true"
       lpeversion="1.3"
       weight="33.333333"
       steps="2"
       helper_size="0"
       apply_no_weight="true"
       apply_with_weight="true"
       only_selected="false"
       uniform="false" /><inkscape:path-effect
       effect="bspline"
       id="path-effect22"
       is_visible="true"
       lpeversion="1.3"
       weight="33.333333"
       steps="2"
       helper_size="0"
       apply_no_weight="true"
       apply_with_weight="true"
       only_selected="false"
       uniform="false" /><marker
       style="overflow:visible"
       id="Triangle"
       refX="0"
       refY="0"
       orient="auto-start-reverse"
       inkscape:stockid="Triangle arrow"
       markerWidth="1"
       markerHeight="1"
       viewBox="0 0 1 1"
       inkscape:isstock="true"
       inkscape:collect="always"
       preserveAspectRatio="xMidYMid"><path
         transform="scale(0.5)"
         style="fill:context-stroke;fill-rule:evenodd;stroke:context-stroke;stroke-width:1pt"
         d="M 5.77,0 -2.88,5 V -5 Z"
         id="path135" /></marker><marker
       style="overflow:visible"
       id="Triangle-4"
       refX="0"
       refY="0"
       orient="auto-start-reverse"
       inkscape:stockid="Triangle arrow"
       markerWidth="1"
       markerHeight="1"
       viewBox="0 0 1 1"
       inkscape:isstock="true"
       inkscape:collect="always"
       preserveAspectRatio="xMidYMid"><path
         transform="scale(0.5)"
         style="fill:context-stroke;fill-rule:evenodd;stroke:context-stroke;stroke-width:1pt"
         d="M 5.77,0 -2.88,5 V -5 Z"
         id="path135-7" /></marker><marker
       style="overflow:visible"
       id="marker28-7"
       refX="0"
       refY="0"
       orient="auto-start-reverse"
       inkscape:stockid="Triangle arrow"
       markerWidth="1"
       markerHeight="1"
       viewBox="0 0 1 1"
       inkscape:isstock="true"
       inkscape:collect="always"
       preserveAspectRatio="xMidYMid"><path
         transform="scale(0.5)"
         style="fill:context-stroke;fill-rule:evenodd;stroke:context-stroke;stroke-width:1pt"
         d="M 5.77,0 -2.88,5 V -5 Z"
         id="path28-8" /></marker><marker
       style="overflow:visible"
       id="marker28-3"
       refX="0"
       refY="0"
       orient="auto-start-reverse"
       inkscape:stockid="Triangle arrow"
       markerWidth="1"
       markerHeight="1"
       viewBox="0 0 1 1"
       inkscape:isstock="true"
       inkscape:collect="always"
       preserveAspectRatio="xMidYMid"><path
         transform="scale(0.5)"
         style="fill:context-stroke;fill-rule:evenodd;stroke:context-stroke;stroke-width:1pt"
         d="M 5.77,0 -2.88,5 V -5 Z"
         id="path28-1" /></marker><marker
       style="overflow:visible"
       id="marker28-6"
       refX="0"
       refY="0"
       orient="auto-start-reverse"
       inkscape:stockid="Triangle arrow"
       markerWidth="1"
       markerHeight="1"
       viewBox="0 0 1 1"
       inkscape:isstock="true"
       inkscape:collect="always"
       preserveAspectRatio="xMidYMid"><path
         transform="scale(0.5)"
         style="fill:context-stroke;fill-rule:evenodd;stroke:context-stroke;stroke-width:1pt"
         d="M 5.77,0 -2.88,5 V -5 Z"
         id="path28-89" /></marker></defs><g
     inkscape:label="Capa 1"
     inkscape:groupmode="layer"
     id="layer1"><g
       id="g12"
       transform="matrix(2.6143359,0,0,2.6143359,30.194662,-77.343651)"
       inkscape:export-filename="../Extras/esquema_general_highlighted.png"
       inkscape:export-xdpi="96"
       inkscape:export-ydpi="96"><path
         style="fill:#000000;fill-opacity:1;stroke-width:0.0518147"
         d="m 38.51496,76.790663 c -0.07163,-0.03548 -0.22894,-0.11171 -0.349583,-0.169438 -0.539265,-0.258054 -1.793927,-0.857033 -1.907515,-0.910654 l -0.125314,-0.05916 -0.203709,0.01231 c -0.112042,0.0067 -0.333265,0.01893 -0.491603,0.02705 -0.158344,0.0081 -0.398942,0.02069 -0.534662,0.02793 -0.13572,0.0072 -0.370153,0.0196 -0.52095,0.02752 -0.150803,0.0079 -0.385231,0.02022 -0.520956,0.02741 -0.13572,0.0072 -0.370148,0.0195 -0.52095,0.02741 -0.150803,0.0079 -0.38523,0.02022 -0.520951,0.02741 -0.13572,0.0072 -0.370147,0.0195 -0.520955,0.02741 -0.150797,0.0079 -0.385225,0.02022 -0.52095,0.02741 -0.135721,0.0072 -0.370148,0.0195 -0.520951,0.02741 -0.150802,0.0079 -0.38523,0.02022 -0.52095,0.02741 -0.13572,0.0072 -0.370153,0.0195 -0.52095,0.02741 -0.150803,0.0079 -0.38523,0.02022 -0.520956,0.02741 -0.13572,0.0072 -0.370148,0.0195 -0.52095,0.02741 -0.150803,0.0079 -0.38523,0.02022 -0.52095,0.02741 -0.135721,0.0072 -0.370153,0.0195 -0.520956,0.02736 -0.150797,0.0079 -0.382142,0.02012 -0.514097,0.02726 -0.13195,0.0071 -0.375631,0.0195 -0.541515,0.02752 -0.16588,0.008 -0.326996,0.01665 -0.358035,0.01914 l -0.05643,0.0047 -0.009,-0.172903 c -0.0052,-0.0951 -0.01495,-0.305542 -0.02224,-0.467651 -0.0073,-0.162114 -0.01945,-0.430472 -0.02705,-0.596351 -0.0075,-0.165885 -0.02002,-0.443496 -0.02767,-0.616917 -0.0077,-0.173426 -0.02002,-0.447954 -0.02741,-0.610063 -0.0074,-0.162114 -0.01986,-0.436642 -0.02762,-0.610063 -0.03548,-0.792748 -0.042,-0.936692 -0.0546,-1.213268 -0.0074,-0.162114 -0.01981,-0.436637 -0.02762,-0.610063 -0.03083,-0.686174 -0.04153,-0.923596 -0.05458,-1.209839 -0.0075,-0.163997 -0.01986,-0.440072 -0.02752,-0.613493 -0.01303,-0.295005 -0.01914,-0.430699 -0.05457,-1.206415 -0.0076,-0.165879 -0.02002,-0.443495 -0.02767,-0.616916 -0.0076,-0.173421 -0.01997,-0.447949 -0.02736,-0.610063 -0.0074,-0.162109 -0.01981,-0.436638 -0.02762,-0.610064 -0.03083,-0.686173 -0.04153,-0.923595 -0.05458,-1.209838 -0.0075,-0.163997 -0.01986,-0.440067 -0.02752,-0.613488 -0.0077,-0.173426 -0.01997,-0.447949 -0.02736,-0.610063 -0.0074,-0.162114 -0.01976,-0.433554 -0.02752,-0.60321 -0.0077,-0.16965 -0.02027,-0.438008 -0.02788,-0.596351 -0.0076,-0.158339 -0.01769,-0.4391 -0.0224,-0.62391 l -0.0086,-0.336011 3.57211,-0.238084 3.57211,-0.238079 0.45534,0.416439 c 0.250436,0.229043 0.459442,0.418069 0.464459,0.42006 0.0071,0.0026 1.140127,-2.305463 1.265099,-2.577535 l 0.0299,-0.06512 h 0.16064 0.16064 l 0.347406,0.159523 c 0.191068,0.08774 0.899544,0.41388 1.574379,0.724769 1.640182,0.755595 3.560488,1.640155 3.980921,1.833738 0.187608,0.08639 0.346153,0.166081 0.352319,0.177098 0.0062,0.01102 0.252685,0.719803 0.54782,1.575063 0.295129,0.855264 0.654451,1.894331 0.798483,2.309037 0.213589,0.614977 0.262793,0.77044 0.266843,0.843121 l 0.0052,0.08911 -0.591754,1.240687 c -0.325464,0.682381 -0.809391,1.697205 -1.075396,2.255174 -0.265999,0.557968 -0.710177,1.489508 -0.987059,2.070094 -0.276881,0.580592 -0.750459,1.573827 -1.05239,2.207196 -0.301936,0.633365 -0.623966,1.308888 -0.715634,1.501162 l -0.166661,0.349588 -0.170555,0.0026 -0.170556,0.0026 z m 0.503354,-1.781415 c 0.250457,-0.525885 0.693689,-1.455857 0.98497,-2.066603 0.291281,-0.610746 0.775136,-1.625575 1.075241,-2.255174 0.3001,-0.629594 0.805554,-1.689991 1.123229,-2.356431 l 0.577592,-1.211712 -0.173364,-0.501947 c -0.09535,-0.27607 -0.224502,-0.650004 -0.287004,-0.830966 -0.155623,-0.450566 -0.64059,-1.855725 -0.787797,-2.282592 -0.155318,-0.450395 -0.191214,-0.55232 -0.195481,-0.555076 -0.0021,-10e-4 -0.614232,-0.283404 -1.360703,-0.627044 -0.746467,-0.343635 -1.988756,-0.915842 -2.760644,-1.27157 -0.771888,-0.355722 -1.408469,-0.641655 -1.414629,-0.635402 -0.01,0.01009 -1.107475,2.257543 -1.113899,2.280994 -0.0016,0.0052 0.49556,0.464402 1.104423,1.02042 l 1.107025,1.010944 3.36e-4,0.05669 c 5.17e-4,0.09601 0.0374,0.722849 0.04262,0.727908 0.0026,0.0026 0.872628,0.419258 1.933139,0.925866 l 1.928199,0.921102 -0.120209,0.248926 c -0.08012,0.165921 -0.126519,0.24742 -0.139144,0.244405 -0.01691,-0.0041 -3.141953,-1.494127 -3.444996,-1.642639 -0.06718,-0.03289 -0.123416,-0.05826 -0.124983,-0.05632 -0.0047,0.006 0.04464,0.888677 0.05007,0.893493 0.0067,0.0059 3.042009,1.456048 3.127083,1.493977 0.03564,0.01588 0.06494,0.03269 0.06512,0.03729 1.56e-4,0.0047 -0.05366,0.119774 -0.119634,0.255923 l -0.119955,0.247534 -1.459168,-0.697769 c -0.802539,-0.383771 -1.460311,-0.696352 -1.461718,-0.694619 -0.0047,0.0055 0.04836,0.948494 0.05392,0.962801 0.0031,0.0076 0.566663,0.281599 1.252733,0.609013 l 1.247394,0.595302 -0.115527,0.240965 c -0.06354,0.132529 -0.120131,0.2456 -0.125754,0.251269 -0.0056,0.0057 -0.506524,-0.227006 -1.113107,-0.517061 l -1.102881,-0.527374 -0.0041,0.04924 c -0.0064,0.07261 0.03822,0.832449 0.04955,0.842716 0.0053,0.0047 0.413735,0.201367 0.907613,0.436767 0.493874,0.2354 0.902731,0.432432 0.90857,0.437858 0.0079,0.0073 -0.207909,0.48387 -0.22834,0.504301 -0.0021,0.0021 -0.339248,-0.157387 -0.749688,-0.353954 -0.410435,-0.196566 -0.761088,-0.363243 -0.779227,-0.370386 l -0.033,-0.01298 0.0091,0.188974 c 0.0052,0.103931 0.02752,0.532903 0.05012,0.953263 0.09929,1.847181 0.123954,2.313088 0.151144,2.85495 0.01588,0.316687 0.03341,0.584486 0.03895,0.595115 0.0076,0.01459 1.05014,0.5283 1.08481,0.534538 0.0036,5.17e-4 0.211773,-0.429039 0.46223,-0.954924 z m -6.872804,0.09067 4.522549,-0.237764 -0.0091,-0.198889 c -0.0052,-0.109388 -0.02121,-0.424064 -0.0361,-0.699274 -0.01485,-0.275217 -0.04557,-0.847403 -0.06827,-1.271534 -0.08644,-1.616374 -0.124631,-2.330146 -0.150916,-2.820678 -0.01495,-0.278987 -0.04583,-0.855803 -0.06861,-1.281816 -0.02276,-0.426014 -0.05963,-1.113878 -0.08186,-1.528585 -0.02224,-0.414702 -0.05316,-1.006941 -0.06872,-1.316087 -0.01557,-0.309141 -0.03274,-0.588407 -0.03822,-0.620579 -0.0097,-0.05685 -0.05562,-0.100212 -1.632738,-1.540212 L 32.890722,62.102792 29.85238,62.30512 c -1.671086,0.111276 -3.040189,0.203694 -3.042449,0.205375 -0.0021,0.0016 0.01479,0.418659 0.03791,0.926611 0.02312,0.507953 0.05728,1.262855 0.07593,1.677562 0.01862,0.414701 0.05248,1.165797 0.07518,1.669099 0.02271,0.503303 0.05984,1.326887 0.08252,1.830185 0.02271,0.503302 0.05349,1.186538 0.06846,1.518302 0.02472,0.547536 0.0765,1.698938 0.151107,3.358764 0.01526,0.339306 0.03993,0.880102 0.05483,1.20177 0.0149,0.321668 0.0271,0.601736 0.0271,0.622373 v 0.0375 l 0.119955,-0.0075 c 0.06597,-0.0041 2.155102,-0.114494 4.642505,-0.245264 z m -3.615464,-3.942987 c -0.0047,-0.04329 -0.01221,-0.169133 -0.01722,-0.279612 l -0.0092,-0.200876 0.101165,-0.0085 c 0.15433,-0.01303 6.128971,-0.325216 6.133104,-0.320458 0.0036,0.0041 0.03269,0.551001 0.02938,0.554467 -10e-4,0.001 -1.371394,0.07348 -3.045294,0.16093 -1.673899,0.08745 -3.07505,0.162119 -3.113666,0.165921 l -0.07021,0.0069 z m -0.06973,-1.309146 c -0.0036,-0.01696 -0.01128,-0.14037 -0.01738,-0.274234 l -0.01112,-0.243391 0.04112,-0.0061 c 0.04252,-0.0063 6.100332,-0.324001 6.163548,-0.323251 l 0.03548,3.41e-4 0.01293,0.270758 c 0.0071,0.148915 0.0097,0.274409 0.0056,0.278873 -0.0064,0.0071 -6.089171,0.32997 -6.186487,0.328371 -0.02757,-5.07e-4 -0.0391,-0.0087 -0.04371,-0.03145 z m -0.08193,-1.555998 c -0.0047,-0.09614 -0.01236,-0.222604 -0.01681,-0.28104 l -0.008,-0.106249 0.04598,-3.41e-4 c 0.02529,-3.36e-4 1.427876,-0.07358 3.116858,-0.162978 1.688976,-0.0894 3.072086,-0.161509 3.073565,-0.160242 0.0068,0.0058 0.03398,0.545146 0.02777,0.551363 -0.0052,0.0052 -6.112952,0.333632 -6.215136,0.334273 -0.01024,5.2e-5 -0.01841,-0.05898 -0.02421,-0.174693 z m -0.06802,-1.301972 c -0.0047,-0.07374 -0.01247,-0.199758 -0.01727,-0.280037 l -0.0088,-0.145961 0.128588,-0.009 c 0.212751,-0.0149 6.103524,-0.322899 6.10672,-0.31932 0.0047,0.0055 0.03414,0.548632 0.02979,0.552987 -0.0021,0.0021 -1.36107,0.07505 -3.019681,0.161871 -1.65861,0.08682 -3.059574,0.161375 -3.113257,0.165684 l -0.0976,0.0079 z"
         id="path2" /><text
         xml:space="preserve"
         style="font-style:normal;font-variant:normal;font-weight:normal;font-stretch:normal;font-size:3.88056px;font-family:sans-serif;-inkscape-font-specification:'sans-serif, Normal';font-variant-ligatures:normal;font-variant-caps:normal;font-variant-numeric:normal;font-variant-east-asian:normal;text-align:center;writing-mode:lr-tb;direction:ltr;text-anchor:middle;fill:#000000;fill-opacity:1;stroke:none;stroke-width:0.899999;stroke-linejoin:round;stroke-dasharray:none;stroke-opacity:1"
         x="34.709511"
         y="80.086784"
         id="text2"><tspan
           sodipodi:role="line"
           id="tspan2"
           x="34.709511"
           y="80.086784">Documentos</tspan></text></g><g
       id="g14"
       transform="matrix(2.6143359,0,0,2.6143359,31.319329,-77.343651)"><g
         id="g13"><rect
           style="fill:none;fill-opacity:1;stroke:#000000;stroke-width:0.600001;stroke-linejoin:round;stroke-dasharray:none;stroke-opacity:1"
           id="rect2"
           width="29.243019"
           height="1.986827"
           x="19.746864"
           y="92.216194"
           ry="0.99341351" /><rect
           style="fill:none;fill-opacity:1;stroke:#000000;stroke-width:0.600001;stroke-linejoin:round;stroke-dasharray:none;stroke-opacity:1"
           id="rect2-6"
           width="29.243019"
           height="1.986827"
           x="19.746864"
           y="95.614021"
           ry="0.99341351" /><rect
           style="fill:none;fill-opacity:1;stroke:#000000;stroke-width:0.600001;stroke-linejoin:round;stroke-dasharray:none;stroke-opacity:1"
           id="rect2-0"
           width="29.243019"
           height="1.986827"
           x="19.746864"
           y="102.40968"
           ry="0.99341351" /><rect
           style="fill:none;fill-opacity:1;stroke:#000000;stroke-width:0.600001;stroke-linejoin:round;stroke-dasharray:none;stroke-opacity:1"
           id="rect2-9"
           width="29.243019"
           height="1.986827"
           x="19.746864"
           y="105.8075"
           ry="0.99341351" /><rect
           style="fill:none;fill-opacity:1;stroke:#000000;stroke-width:0.600001;stroke-linejoin:round;stroke-dasharray:none;stroke-opacity:1"
           id="rect2-1"
           width="29.243019"
           height="1.986827"
           x="19.746864"
           y="109.20529"
           ry="0.99341351" /><rect
           style="fill:none;fill-opacity:1;stroke:#000000;stroke-width:0.600001;stroke-linejoin:round;stroke-dasharray:none;stroke-opacity:1"
           id="rect2-8"
           width="29.243019"
           height="1.986827"
           x="19.746864"
           y="99.011848"
           ry="0.99341351" /></g><text
         xml:space="preserve"
         style="font-style:normal;font-variant:normal;font-weight:normal;font-stretch:normal;font-size:3.88056px;font-family:sans-serif;-inkscape-font-specification:'sans-serif, Normal';font-variant-ligatures:normal;font-variant-caps:normal;font-variant-numeric:normal;font-variant-east-asian:normal;text-align:center;writing-mode:lr-tb;direction:ltr;text-anchor:middle;fill:#000000;fill-opacity:1;stroke:none;stroke-width:0.899999;stroke-linejoin:round;stroke-dasharray:none;stroke-opacity:1"
         x="34.27932"
         y="115.82449"
         id="text2-6"><tspan
           sodipodi:role="line"
           id="tspan1"
           x="34.27932"
           y="115.82449">Partes</tspan></text></g><g
       id="g19"
       transform="matrix(2.6143359,0,0,2.6143359,-43.390771,-64.193316)"><g
         id="g18"><rect
           style="fill:none;fill-opacity:1;stroke:#000000;stroke-width:0.600001;stroke-linejoin:round;stroke-dasharray:none;stroke-opacity:1"
           id="rect2-9-9"
           width="29.243019"
           height="1.986827"
           x="125.65437"
           y="113.26953"
           ry="0.99341351" /><rect
           style="fill:none;fill-opacity:1;stroke:#000000;stroke-width:0.600001;stroke-linejoin:round;stroke-dasharray:none;stroke-opacity:1"
           id="rect2-1-4"
           width="29.243019"
           height="1.986827"
           x="125.65437"
           y="116.66733"
           ry="0.99341351" /></g><text
         xml:space="preserve"
         style="font-style:normal;font-variant:normal;font-weight:normal;font-stretch:normal;font-size:3.88056px;font-family:sans-serif;-inkscape-font-specification:'sans-serif, Normal';font-variant-ligatures:normal;font-variant-caps:normal;font-variant-numeric:normal;font-variant-east-asian:normal;text-align:center;writing-mode:lr-tb;direction:ltr;text-anchor:middle;fill:#000000;fill-opacity:1;stroke:none;stroke-width:0.899999;stroke-linejoin:round;stroke-dasharray:none;stroke-opacity:1"
         x="140.34253"
         y="123.28652"
         id="text2-6-7"><tspan
           sodipodi:role="line"
           id="tspan9"
           x="140.34253"
           y="123.28652">Partes relevantes</tspan></text></g><g
       id="g16"
       transform="matrix(2.6143359,0,0,2.6143359,32.961533,-77.343651)"><path
         style="fill:none;fill-opacity:1;stroke:#000000;stroke-width:0.129578;stroke-dasharray:none;stroke-opacity:1"
         d="m 31.797462,180.1672 c -2.284996,-0.12689 -4.505276,-0.51205 -6.215168,-1.0782 -1.717353,-0.56861 -2.91056,-1.36023 -3.333025,-2.21127 l -0.137065,-0.27611 -0.01642,-2.70574 c -0.01208,-1.98962 0.0011,-2.72686 0.04985,-2.78558 0.08127,-0.0979 0.290882,-0.10409 0.38369,-0.0113 0.05117,0.0511 0.06967,0.72176 0.07292,2.64273 0.0031,1.81909 0.02402,2.62753 0.07142,2.75611 0.428406,1.16197 2.677877,2.21921 5.923946,2.78421 3.349256,0.58296 7.471109,0.55075 10.742352,-0.084 3.009911,-0.58398 5.0599,-1.59655 5.466824,-2.70026 0.0474,-0.12858 0.06835,-0.93702 0.07143,-2.75611 0.0032,-1.92097 0.02175,-2.59156 0.07292,-2.64273 0.106318,-0.10632 0.320757,-0.081 0.388681,0.0459 0.04181,0.0781 0.05607,0.96339 0.04486,2.78558 l -0.01642,2.67107 -0.161944,0.30757 c -1.155043,2.19374 -6.999969,3.61391 -13.408847,3.25802 z m 4.428364,-0.169 c 0.439979,-0.0329 1.06995,-0.0972 1.399934,-0.14275 0.329985,-0.0455 0.713316,-0.0963 0.851848,-0.11274 0.572014,-0.0679 2.048061,-0.38737 2.786442,-0.60307 2.09801,-0.61286 3.405179,-1.40446 3.83547,-2.32271 l 0.154452,-0.3296 0.01702,-2.59073 c 0.01732,-2.63677 0.0064,-2.79017 -0.192606,-2.71379 -0.06897,0.0265 -0.08153,0.43359 -0.08153,2.64241 v 2.61111 l -0.146646,0.29428 c -0.588965,1.18189 -3.096442,2.26645 -6.369749,2.7551 -1.738119,0.25947 -2.509831,0.31013 -4.74022,0.31117 -2.30657,0.001 -3.222482,-0.0628 -4.940105,-0.34448 -3.246416,-0.53238 -5.595174,-1.56852 -6.169872,-2.72179 l -0.146644,-0.29428 v -2.61111 c 0,-2.20882 -0.01256,-2.61594 -0.08153,-2.64241 -0.199033,-0.0764 -0.20992,0.077 -0.192608,2.71379 l 0.01701,2.59073 0.156341,0.33373 c 0.466135,0.99501 2.016604,1.8629 4.443443,2.48723 0.638933,0.16437 1.707587,0.37334 2.228467,0.43577 0.141421,0.0169 0.2957,0.0421 0.342841,0.0558 0.09556,0.0279 1.640318,0.19046 2.085616,0.21948 0.725072,0.0472 4.025901,0.0325 4.742634,-0.0212 z m -4.485504,-6.60205 c -2.401052,-0.19677 -3.371504,-0.33871 -4.885484,-0.71455 -2.447428,-0.60757 -4.071483,-1.51297 -4.583259,-2.55512 l -0.159375,-0.32454 -0.01644,-2.67714 c -0.01209,-1.96842 0.0011,-2.69828 0.04985,-2.75701 0.09068,-0.10927 0.374375,-0.10213 0.417596,0.0105 0.01908,0.0497 0.03469,1.24031 0.03469,2.64579 v 2.55542 l 0.146645,0.29428 c 0.671534,1.34759 3.658774,2.461 7.795839,2.90567 1.297085,0.13942 4.292564,0.16873 5.685447,0.0556 4.454763,-0.36173 7.793644,-1.52357 8.51009,-2.96129 l 0.146646,-0.29428 v -2.55542 c 0,-1.40548 0.01561,-2.59609 0.03469,-2.6458 0.04322,-0.11263 0.326916,-0.11977 0.417595,-0.0106 0.04874,0.0587 0.06194,0.78859 0.04985,2.75702 l -0.01643,2.67714 -0.159415,0.32462 c -0.74981,1.52687 -3.807479,2.70707 -8.21162,3.16951 -0.77529,0.0814 -4.596963,0.15416 -5.256896,0.10008 z m 3.971242,-0.13883 c 3.5951,-0.21328 6.748708,-1.00938 8.371035,-2.11319 0.420466,-0.28607 0.892088,-0.79461 1.046002,-1.12787 0.12338,-0.26715 0.125371,-0.31369 0.125371,-2.92848 0,-2.61893 -0.0017,-2.65702 -0.114281,-2.65702 -0.112231,0 -0.11479,0.0476 -0.142848,2.65702 -0.02777,2.58256 -0.03202,2.66342 -0.151526,2.88558 -0.793683,1.47537 -4.208847,2.6583 -8.657854,2.99888 -1.643347,0.1258 -4.506407,0.0716 -6.132776,-0.11615 -3.839049,-0.44312 -6.703088,-1.55595 -7.419148,-2.88273 -0.120038,-0.22242 -0.124122,-0.29998 -0.151924,-2.88558 -0.02806,-2.6094 -0.03062,-2.65702 -0.14285,-2.65702 -0.112643,0 -0.114281,0.0381 -0.114281,2.65702 0,2.60932 0.0022,2.66185 0.124524,2.92656 0.631932,1.36787 3.381302,2.52472 7.217988,3.0371 0.593246,0.0792 1.734076,0.18358 2.485597,0.22737 0.730281,0.0426 2.780595,0.0305 3.656971,-0.0215 z m -3.797365,-6.62711 c -2.945946,-0.17527 -5.404837,-0.66179 -7.231631,-1.43085 -1.26036,-0.53059 -2.026444,-1.118 -2.418306,-1.85426 l -0.152058,-0.2857 -0.01701,-2.62798 c -0.0094,-1.44539 -0.0029,-2.68434 0.01442,-2.75321 0.03859,-0.15378 0.215659,-0.21758 0.371846,-0.134 0.114421,0.0613 0.116514,0.10708 0.120786,2.6459 0.0031,1.8263 0.02401,2.63691 0.07142,2.76552 0.351157,0.95245 1.929681,1.84436 4.339573,2.45197 5.086675,1.2825 12.416691,0.87283 16.012265,-0.89494 0.972768,-0.47826 1.578896,-1.00808 1.781283,-1.55703 0.04742,-0.12861 0.06835,-0.93922 0.07143,-2.76552 0.0043,-2.53882 0.0064,-2.58466 0.120786,-2.6459 0.156186,-0.0836 0.33325,-0.0198 0.371846,0.134 0.01728,0.0689 0.02378,1.30782 0.01443,2.75321 l -0.01702,2.62798 -0.16071,0.30514 c -0.849468,1.61288 -4.165767,2.81968 -8.810296,3.20605 -0.997266,0.083 -3.525581,0.11659 -4.483047,0.0596 z m 4.254486,-0.17585 c 4.57784,-0.31906 8.193112,-1.60481 8.928947,-3.17552 l 0.15634,-0.33372 0.01702,-2.59074 c 0.01732,-2.63677 0.0064,-2.79016 -0.192606,-2.71379 -0.06893,0.0264 -0.08158,0.42573 -0.08185,2.5822 -1.97e-4,1.57153 -0.02288,2.63215 -0.05909,2.76252 -0.148764,0.53563 -0.833381,1.14201 -1.854789,1.64282 -1.568119,0.76886 -3.832794,1.30248 -6.599688,1.55505 -1.217684,0.11115 -4.567822,0.094 -5.771158,-0.0295 -4.187635,-0.4299 -7.07618,-1.44974 -7.985901,-2.81954 l -0.213722,-0.32181 -0.01648,-2.66003 c -0.01674,-2.70351 -0.02858,-2.84494 -0.224453,-2.68237 -0.09562,0.0794 -0.106389,4.80121 -0.01196,5.24152 0.08653,0.40346 0.438607,0.91642 0.862714,1.25691 0.416255,0.3342 1.618909,0.94993 2.34299,1.19955 2.76294,0.95252 6.778024,1.36006 10.703684,1.08646 z m -4.342652,-6.60214 c -3.116081,-0.19947 -5.76109,-0.76052 -7.493346,-1.58945 -0.7958,-0.38082 -1.214626,-0.66448 -1.637289,-1.10888 -0.539081,-0.56682 -0.71061,-1.12489 -0.533259,-1.73495 0.502022,-1.72689 3.836734,-3.06963 8.692511,-3.50007 1.276246,-0.11314 4.466141,-0.11579 5.714017,-0.005 2.916996,0.25955 5.156857,0.79183 6.799209,1.61577 0.659212,0.33071 0.950943,0.53214 1.359521,0.93868 0.448943,0.44671 0.639634,0.86214 0.63857,1.39117 -0.0011,0.51613 -0.144134,0.83491 -0.580908,1.29416 -1.220724,1.28352 -3.895651,2.17361 -7.798242,2.59489 -0.782884,0.0845 -4.342029,0.15585 -5.160784,0.10344 z m 5.028334,-0.2193 c 4.359133,-0.42962 7.59555,-1.66618 8.272671,-3.1608 0.35749,-0.78909 -0.0403,-1.70689 -1.027283,-2.37017 -1.612223,-1.08347 -4.211382,-1.78439 -7.816789,-2.10798 -1.004884,-0.0902 -4.288639,-0.0887 -5.171186,0.002 -1.852657,0.19118 -2.92242,0.359 -4.056952,0.63646 -3.119346,0.76284 -4.828737,1.90633 -4.823858,3.2269 0.0018,0.49459 0.175424,0.8254 0.704648,1.3428 1.35917,1.32878 4.66893,2.25291 9.090405,2.53816 0.749595,0.0483 3.974531,-0.0237 4.828344,-0.10778 z m -5.856867,-0.2321 c -3.024729,-0.2667 -5.489475,-0.88207 -7.009543,-1.75007 -0.874072,-0.49912 -1.502352,-1.23843 -1.503784,-1.76954 -0.0061,-2.26234 6.330438,-4.03406 13.05597,-3.65051 4.120974,0.23501 7.401819,1.13298 8.796456,2.4076 0.862637,0.7884 0.875824,1.54701 0.04085,2.34996 -1.301924,1.25198 -4.274566,2.13094 -8.259916,2.44231 -0.999837,0.0781 -4.101044,0.0601 -5.120032,-0.0297 z m 4.999765,-0.0856 c 3.982815,-0.28981 7.20463,-1.24949 8.370545,-2.49335 0.395873,-0.42234 0.544701,-0.7632 0.490641,-1.12371 -0.215677,-1.43824 -3.340793,-2.74302 -7.746953,-3.23446 -2.9112,-0.32469 -6.497136,-0.18025 -9.165081,0.36917 -3.651959,0.75207 -5.739428,2.09525 -5.26294,3.38642 0.132261,0.35839 0.783782,0.99175 1.350376,1.31272 1.571196,0.89008 4.188638,1.52691 7.306488,1.77771 0.869929,0.07 3.724421,0.0734 4.656924,0.006 z"
         id="path1"
         sodipodi:nodetypes="ssscsssssssssssccssscsssscssscssssscssscsssssccssscsssscsssscscsscsssssssssssssssssssssssscsssssssssscccsssssscsssssssscsssssssssssssscssscssscssssccsssssssscssssssscc" /><text
         xml:space="preserve"
         style="font-style:normal;font-variant:normal;font-weight:normal;font-stretch:normal;font-size:3.88056px;font-family:sans-serif;-inkscape-font-specification:'sans-serif, Normal';font-variant-ligatures:normal;font-variant-caps:normal;font-variant-numeric:normal;font-variant-east-asian:normal;text-align:center;writing-mode:lr-tb;direction:ltr;text-anchor:middle;fill:#000000;fill-opacity:1;stroke:none;stroke-width:0.899999;stroke-linejoin:round;stroke-dasharray:none;stroke-opacity:1"
         x="33.651165"
         y="184.35576"
         id="text2-6-1"><tspan
           sodipodi:role="line"
           id="tspan5"
           x="33.651165"
           y="184.35576">Base de datos</tspan><tspan
           sodipodi:role="line"
           id="tspan6"
           x="33.651165"
           y="189.20645">de vectores</tspan></text></g><rect
       style="fill:none;fill-opacity:1;stroke:#3c3de9;stroke-width:2.3529;stroke-linejoin:round;stroke-dasharray:none;stroke-opacity:1"
       id="rect1"
       width="165.10365"
       height="40.808964"
       x="38.617973"
       y="249.95731"
       ry="15.044928" /><text
       xml:space="preserve"
       style="font-style:normal;font-variant:normal;font-weight:normal;font-stretch:normal;font-size:18.4456px;font-family:sans-serif;-inkscape-font-specification:'sans-serif, Normal';font-variant-ligatures:normal;font-variant-caps:normal;font-variant-numeric:normal;font-variant-east-asian:normal;text-align:center;writing-mode:lr-tb;direction:ltr;text-anchor:middle;fill:#3c3de9;fill-opacity:1;stroke:none;stroke-width:2.3529;stroke-linejoin:round;stroke-dasharray:none;stroke-opacity:1"
       x="121.11126"
       y="275.13083"
       id="text2-6-8"><tspan
         sodipodi:role="line"
         id="tspan4"
         x="121.11126"
         y="275.13083"
         style="stroke-width:2.3529;fill:#3c3de9;fill-opacity:1">embeddings</tspan></text><rect
       style="fill:none;fill-opacity:1;stroke:#000000;stroke-width:2.3529;stroke-linejoin:round;stroke-dasharray:none;stroke-opacity:1"
       id="rect1-6"
       width="165.10365"
       height="40.808964"
       x="300.9711"
       y="118.28117"
       ry="15.044928" /><text
       xml:space="preserve"
       style="font-style:normal;font-variant:normal;font-weight:normal;font-stretch:normal;font-size:18.4456px;font-family:sans-serif;-inkscape-font-specification:'sans-serif, Normal';font-variant-ligatures:normal;font-variant-caps:normal;font-variant-numeric:normal;font-variant-east-asian:normal;text-align:center;writing-mode:lr-tb;direction:ltr;text-anchor:middle;fill:#000000;fill-opacity:1;stroke:none;stroke-width:2.3529;stroke-linejoin:round;stroke-dasharray:none;stroke-opacity:1"
       x="383.2077"
       y="145.27852"
       id="text2-6-8-1"><tspan
         sodipodi:role="line"
         id="tspan3"
         x="383.2077"
         y="145.27852"
         style="stroke-width:2.3529;fill:#000000;fill-opacity:1">Controlador</tspan></text><text
       xml:space="preserve"
       style="font-style:normal;font-variant:normal;font-weight:normal;font-stretch:normal;font-size:18.4456px;font-family:sans-serif;-inkscape-font-specification:'sans-serif, Normal';font-variant-ligatures:normal;font-variant-caps:normal;font-variant-numeric:normal;font-variant-east-asian:normal;text-align:center;writing-mode:lr-tb;direction:ltr;text-anchor:middle;fill:#000000;fill-opacity:1;stroke:none;stroke-width:2.3529;stroke-linejoin:round;stroke-dasharray:none;stroke-opacity:1"
       x="108.63804"
       y="55.220757"
       id="text2-6-8-4"><tspan
         sodipodi:role="line"
         id="tspan7"
         x="108.63804"
         y="55.220757">Extractor de información</tspan></text><text
       xml:space="preserve"
       style="font-style:normal;font-variant:normal;font-weight:normal;font-stretch:normal;font-size:18.4456px;font-family:sans-serif;-inkscape-font-specification:'sans-serif, Normal';font-variant-ligatures:normal;font-variant-caps:normal;font-variant-numeric:normal;font-variant-east-asian:normal;text-align:center;writing-mode:lr-tb;direction:ltr;text-anchor:middle;fill:#000000;fill-opacity:1;stroke:none;stroke-width:2.3529;stroke-linejoin:round;stroke-dasharray:none;stroke-opacity:1"
       x="352.97467"
       y="53.288837"
       id="text2-6-8-4-5"><tspan
         sodipodi:role="line"
         id="tspan8"
         x="352.97467"
         y="53.288837">Modelador de lenguaje</tspan></text><rect
       style="fill:none;fill-opacity:1;stroke:#000000;stroke-width:2.3529;stroke-linejoin:round;stroke-dasharray:none;stroke-opacity:1"
       id="rect6"
       width="219.59576"
       height="378.19818"
       x="11.371907"
       y="60.702389"
       ry="15.834405" /><rect
       style="fill:none;fill-opacity:1;stroke:#000000;stroke-width:2.3529;stroke-linejoin:round;stroke-dasharray:none;stroke-opacity:1"
       id="rect6-4"
       width="219.59576"
       height="378.19818"
       x="261.82855"
       y="60.702389"
       ry="15.834405" /><rect
       style="fill:none;fill-opacity:1;stroke:#000000;stroke-width:2.3529;stroke-linejoin:round;stroke-dasharray:none;stroke-opacity:1"
       id="rect6-4-6"
       width="44.064156"
       height="378.19818"
       x="512.28516"
       y="60.702389"
       ry="15.834405" /><rect
       style="fill:none;fill-opacity:1;stroke:#000000;stroke-width:2.353;stroke-linejoin:round;stroke-dasharray:none;stroke-opacity:1"
       id="rect6-4-6-4"
       width="44.064156"
       height="378.19818"
       x="587.21021"
       y="60.702389"
       ry="15.834405" /><text
       xml:space="preserve"
       style="font-style:normal;font-variant:normal;font-weight:normal;font-stretch:normal;font-size:33.2021px;font-family:sans-serif;-inkscape-font-specification:'sans-serif, Normal';font-variant-ligatures:normal;font-variant-caps:normal;font-variant-numeric:normal;font-variant-east-asian:normal;text-align:center;writing-mode:lr-tb;direction:ltr;text-anchor:middle;fill:#000000;fill-opacity:1;stroke:none;stroke-width:2.3529;stroke-linejoin:round;stroke-dasharray:none;stroke-opacity:1"
       x="-249.26581"
       y="545.28717"
       id="text2-6-8-4-5-7"
       transform="rotate(-90.103333)"><tspan
         sodipodi:role="line"
         id="tspan11"
         x="-249.26581"
         y="545.28717"
         style="stroke-width:2.3529">API</tspan></text><text
       xml:space="preserve"
       style="font-style:normal;font-variant:normal;font-weight:normal;font-stretch:normal;font-size:33.2021px;font-family:sans-serif;-inkscape-font-specification:'sans-serif, Normal';font-variant-ligatures:normal;font-variant-caps:normal;font-variant-numeric:normal;font-variant-east-asian:normal;text-align:center;writing-mode:lr-tb;direction:ltr;text-anchor:middle;fill:#000000;fill-opacity:1;stroke:none;stroke-width:2.3529;stroke-linejoin:round;stroke-dasharray:none;stroke-opacity:1"
       x="-250.23138"
       y="617.50549"
       id="text2-6-8-4-5-7-2"
       transform="rotate(-90.103333)"><tspan
         sodipodi:role="line"
         id="tspan12"
         x="-250.23138"
         y="617.50549"
         style="stroke-width:2.3529">Aplicación Web</tspan></text><path
       style="fill:none;stroke:#3c3de9;stroke-width:2.353;stroke-dasharray:none;stroke-opacity:1"
       d="m 396.73169,362.89275 c -0.29103,-0.0708 -0.58177,-0.23921 -0.72279,-0.41842 -0.16208,-0.20627 -0.21228,-0.20235 -0.34287,0.0272 -0.28922,0.50838 -1.54787,0.35719 -2.1528,-0.25856 -0.28334,-0.28839 -0.84328,-1.24416 -1.19911,-2.04669 -0.32936,-0.74283 -0.54779,-1.08016 -1.35891,-2.09832 -0.61586,-0.77308 -0.73272,-1.01684 -0.83337,-1.73798 -0.0701,-0.50237 -0.17751,-0.72595 -0.59476,-1.23875 -0.39775,-0.4888 -0.65889,-1.02432 -0.79249,-1.62525 -0.0847,-0.38002 -0.15267,-0.52473 -0.34365,-0.72948 -0.21542,-0.23085 -0.27903,-0.26039 -0.66206,-0.30646 -0.54409,-0.0656 -1.03893,-0.30179 -1.48423,-0.70877 -0.44622,-0.40778 -0.59767,-0.66882 -0.91983,-1.58523 -0.14222,-0.40436 -0.30933,-0.77308 -0.3715,-0.81936 -0.0732,-0.0544 -0.20339,-0.0708 -0.36878,-0.0465 -0.59091,0.0871 -2.08791,0.11111 -2.37627,0.0387 -0.16235,-0.0408 -0.69523,-0.23189 -1.1844,-0.42441 -1.29705,-0.51058 -1.44957,-0.54203 -2.92847,-0.60383 -3.71474,-0.15529 -3.93725,-0.18641 -5.64553,-0.79471 -1.524,-0.5426 -2.08067,-0.79387 -2.3059,-1.04082 -0.1098,-0.12078 -0.28407,-0.29607 -0.38687,-0.38993 -0.10274,-0.0938 -0.30415,-0.29761 -0.44752,-0.45283 -0.14326,-0.15529 -0.36457,-0.38768 -0.49162,-0.51659 -0.31406,-0.31861 -0.53202,-0.89834 -0.7494,-1.99322 -0.10039,-0.50569 -0.21386,-0.97774 -0.25176,-1.049 -0.0382,-0.0714 -0.22248,-0.21124 -0.40951,-0.31129 -0.18719,-0.0999 -0.3887,-0.22353 -0.44802,-0.27466 -0.0957,-0.0824 -0.13177,-0.075 -0.31966,0.0656 -0.11634,0.0871 -0.29808,0.17306 -0.40357,0.19084 -0.10536,0.0183 -0.53704,0.10876 -0.95899,0.20235 -0.89139,0.19712 -2.71094,0.32635 -4.50725,0.31981 -1.22053,-0.003 -2.24553,-0.1511 -3.79267,-0.54242 -1.17705,-0.2978 -1.64159,-0.59424 -1.64159,-1.04759 0,-0.28271 -0.0894,-0.35129 -0.37255,-0.28554 -0.4106,0.0954 -0.79457,0.0635 -1.13247,-0.0936 -0.39814,-0.18536 -0.60818,-0.42938 -0.88454,-1.02754 -0.23372,-0.50569 -0.41118,-0.67484 -0.7094,-0.67586 -0.26091,-10e-4 -1.55927,-0.23058 -1.78182,-0.31516 -0.098,-0.0371 -0.30735,-0.0677 -0.46523,-0.0677 -0.27876,0 -1.707,-0.53133 -2.68727,-0.99972 -0.73275,-0.35011 -1.90481,-1.68251 -2.47131,-2.80939 -0.0897,-0.17856 -0.30653,-0.87499 -0.48161,-1.54743 -0.17516,-0.67243 -0.38428,-1.33995 -0.46488,-1.4834 -0.0808,-0.14352 -0.29898,-0.37581 -0.48522,-0.51643 -0.66464,-0.5018 -0.8162,-1.07836 -0.75343,-2.86602 0.0646,-1.83892 0.28452,-3.06513 0.68932,-3.84276 0.26878,-0.51636 0.31746,-0.56972 0.9779,-1.07227 0.38229,-0.2909 0.89698,-0.66323 1.14377,-0.82746 0.24679,-0.16418 0.47055,-0.32896 0.49722,-0.36617 0.0701,-0.0975 0.2366,-0.6775 0.2979,-1.03744 0.29446,-1.72769 0.57811,-2.70341 1.07483,-3.69725 0.50489,-1.01023 0.79006,-1.38223 1.41813,-1.84985 0.31196,-0.23242 0.77013,-0.63594 1.01815,-0.89706 0.39712,-0.41803 0.51549,-0.60679 0.99162,-1.58104 0.5981,-1.22385 0.87392,-1.59433 1.96616,-2.64122 1.14918,-1.10149 2.40527,-1.93204 3.58909,-2.37326 1.19248,-0.44447 1.89364,-0.79965 2.23092,-1.13018 0.4933,-0.48342 1.53218,-0.90911 2.38106,-0.97567 0.25045,-0.0209 0.51667,-0.0478 0.59167,-0.063 0.16654,-0.0332 0.99505,-0.66234 1.3021,-0.98863 0.43008,-0.45704 1.42717,-0.83006 2.21873,-0.83006 0.60415,0 0.92158,-0.13542 2.25254,-0.96084 0.95162,-0.59019 0.90383,-0.57001 2.33795,-0.98822 1.05528,-0.30776 1.36706,-0.34724 2.07738,-0.26285 0.45236,0.0536 0.48143,0.0465 1.88601,-0.46101 0.81983,-0.29631 1.65542,-0.48692 2.57033,-0.58639 0.76373,-0.0831 1.82784,-0.0105 2.9262,0.19947 0.80315,0.15346 0.91097,0.1396 1.72784,-0.22222 1.02171,-0.45241 2.73381,-0.74835 3.61754,-0.62527 0.39217,0.0546 0.75044,0.0379 2.07243,-0.0965 1.65119,-0.16784 2.49769,-0.17385 3.2286,-0.0209 0.38246,0.0795 1.81642,0.51458 3.39984,1.03198 l 1.00239,0.32752 0.96119,-0.0758 c 1.08053,-0.0852 1.3771,-0.063 2.24454,0.16758 0.48979,0.13019 0.78061,0.16444 1.50243,0.17594 1.02247,0.0157 1.25799,0.0732 1.64259,0.3966 0.38373,0.32253 0.70914,0.45126 1.26633,0.50093 0.76156,0.068 0.92111,0.13045 1.3874,0.54441 0.24287,0.21542 0.55539,0.42543 0.71965,0.48323 0.15974,0.0562 0.41351,0.14536 0.56396,0.19791 0.15033,0.0525 0.41866,0.21542 0.59602,0.36148 0.58668,0.48344 0.68825,0.53706 1.28631,0.67918 0.32626,0.0777 0.83776,0.19947 1.13663,0.27103 1.24811,0.29869 2.03401,0.97188 2.43233,2.08349 0.0795,0.22144 0.19921,0.43192 0.26635,0.46784 0.0834,0.0447 0.26038,0.0439 0.55928,-0.002 0.41628,-0.0646 0.84752,-0.0288 1.18534,0.0986 0.29322,0.11059 2.10146,1.40858 2.6919,1.93257 1.53833,1.36507 2.28216,2.43983 2.49651,3.60723 0.0546,0.29707 0.11765,0.56718 0.14065,0.6002 0.0235,0.0329 0.21542,0.19268 0.42813,0.35464 0.2128,0.16182 0.67672,0.6066 1.03109,0.98795 0.48695,0.52402 0.69337,0.80166 0.84519,1.13651 0.11058,0.24365 0.27505,0.54041 0.36574,0.65931 0.48781,0.63954 1.35324,2.88154 1.48704,3.85235 0.0363,0.26371 0.10745,0.59701 0.15817,0.74064 0.0507,0.14353 0.12522,0.47448 0.16548,0.73523 0.12654,0.81913 0.25542,1.20343 0.68229,2.03341 0.44188,0.8593 0.50441,1.0838 0.78603,2.82144 0.0711,0.44033 0.21986,1.08764 0.33032,1.43851 0.25516,0.81141 0.29267,1.34113 0.16313,2.30271 -0.1728,1.28301 -0.17254,1.28654 0.26682,2.31225 0.59822,1.39679 0.65022,1.93822 0.29124,3.03247 -0.15372,0.4687 -0.223,0.58235 -0.56247,0.92331 -0.21281,0.21385 -0.60292,0.53144 -0.86663,0.70582 l -0.4795,0.31706 -0.002,0.79656 c -0.002,1.07586 -0.17098,1.54299 -0.86995,2.41466 -0.4167,0.5197 -0.43738,0.61306 -0.24679,1.11433 0.16679,0.43884 0.16052,0.64713 -0.0319,1.06035 -0.31058,0.66715 -1.37817,1.57519 -2.53961,2.1601 -0.24078,0.1213 -0.62347,0.34762 -0.85076,0.5032 -0.22719,0.15556 -0.5212,0.30005 -0.65322,0.32102 -0.86814,0.13777 -1.05671,0.19084 -1.14241,0.32167 -0.10588,0.16156 -0.2298,0.57787 -0.38005,1.27639 -0.075,0.3493 -0.23529,0.75641 -0.50545,1.28409 -0.45085,0.88079 -0.66224,1.17263 -1.02511,1.41519 -0.5299,0.35419 -0.59565,0.45053 -0.8385,1.22879 -0.31657,1.01441 -0.44901,1.2474 -1.01433,1.78439 -1.13015,1.07357 -2.43136,1.76122 -5.95805,3.14876 -1.82263,0.71706 -2.46066,0.90223 -3.60433,1.04594 l -0.80245,0.10091 -1.16813,-0.1966 c -1.36424,-0.22953 -1.98964,-0.40035 -3.00748,-0.8216 -0.4081,-0.16889 -1.04378,-0.38653 -1.41261,-0.48363 -0.36883,-0.0972 -0.72095,-0.20339 -0.78247,-0.23607 -0.0873,-0.0463 -0.11163,-0.0342 -0.11058,0.0546 0.002,0.20967 0.23633,0.61962 0.75802,1.32886 0.28447,0.38679 0.61971,0.87246 0.74491,1.07925 0.12522,0.2068 0.41306,0.58862 0.63967,0.84843 0.70185,0.80475 0.82684,1.24414 0.50841,1.78748 -0.0884,0.15058 -0.17856,0.4122 -0.20078,0.58101 -0.0473,0.36166 -0.16627,0.62407 -0.39312,0.86636 -0.16888,0.18039 -0.31638,0.20549 -0.68396,0.11608 z"
       id="path9" /><text
       xml:space="preserve"
       style="font-style:normal;font-variant:normal;font-weight:normal;font-stretch:normal;font-size:22.1347px;font-family:sans-serif;-inkscape-font-specification:'sans-serif, Normal';font-variant-ligatures:normal;font-variant-caps:normal;font-variant-numeric:normal;font-variant-east-asian:normal;text-align:center;writing-mode:lr-tb;direction:ltr;text-anchor:middle;fill:#3c3de9;fill-opacity:1;stroke:none;stroke-width:1.91108;stroke-linejoin:round;stroke-dasharray:none;stroke-opacity:1"
       x="383.52283"
       y="333.39526"
       id="text10"><tspan
         sodipodi:role="line"
         id="tspan10"
         style="font-style:normal;font-variant:normal;font-weight:normal;font-stretch:normal;font-size:22.1347px;font-family:sans-serif;-inkscape-font-specification:'sans-serif, Normal';font-variant-ligatures:normal;font-variant-caps:normal;font-variant-numeric:normal;font-variant-east-asian:normal;fill:#3c3de9;fill-opacity:1;stroke:none;stroke-width:1.91108"
         x="383.52283"
         y="333.39526">LLM</tspan></text><path
       style="fill:none;fill-opacity:1;stroke:#000000;stroke-width:2.353;stroke-linejoin:round;stroke-dasharray:none;stroke-opacity:1;marker-start:url(#marker31);marker-end:url(#Triangle)"
       d="m 578.67067,243.08755 -14.52409,0"
       id="path21"
       sodipodi:nodetypes="cc" /><path
       style="fill:none;fill-opacity:1;stroke:#000000;stroke-width:2.353;stroke-linejoin:round;stroke-dasharray:none;stroke-opacity:1;marker-start:url(#marker31);marker-end:url(#Triangle-4)"
       d="m 503.42172,137.25948 -29.81262,0"
       id="path21-4"
       sodipodi:nodetypes="cc" /><path
       style="fill:none;fill-opacity:1;stroke:#000000;stroke-width:2.353;stroke-linejoin:round;stroke-dasharray:none;stroke-opacity:1;marker-end:url(#marker26)"
       d="m 299.65509,136.06787 c -17.5818,0 -35.16361,0 -43.95451,10.82959 -8.7909,10.82959 -8.7909,32.4879 -8.7909,54.93085 0,22.44295 0,45.66871 -5.86072,57.28229 -5.86072,11.61358 -17.58169,11.61358 -29.30289,11.61358"
       id="path25"
       inkscape:path-effect="#path-effect26"
       inkscape:original-d="m 299.65509,136.06787 c -17.5818,0 -35.16361,0 -52.74541,0 0,21.65918 0,43.31749 0,64.97623 0,23.22716 0,46.45292 0,69.68008 -11.72144,0 -23.44241,0 -35.16361,0"
       sodipodi:nodetypes="ccscc" /><path
       style="fill:none;fill-opacity:1;stroke:#000000;stroke-width:1;stroke-linejoin:round;stroke-dasharray:none;stroke-opacity:1;marker-end:url(#marker28)"
       d="m 121.1562,137.53807 v 17.5818"
       id="path27" /><path
       style="fill:none;fill-opacity:1;stroke:#000000;stroke-width:1;stroke-linejoin:round;stroke-dasharray:none;stroke-opacity:1;marker-end:url(#marker28-7)"
       d="M 121.1562,228.07083 V 241.8305"
       id="path27-8"
       sodipodi:nodetypes="cc" /><path
       style="fill:none;fill-opacity:1;stroke:#000000;stroke-width:1;stroke-linejoin:round;stroke-dasharray:none;stroke-opacity:1;marker-end:url(#marker28-3)"
       d="m 121.1562,295.53957 v 17.5818"
       id="path27-9" /><path
       style="fill:none;fill-opacity:1;stroke:#000000;stroke-width:1;stroke-linejoin:round;stroke-dasharray:none;stroke-opacity:1;marker-start:url(#marker31);marker-end:url(#marker28-6)"
       d="m 386.67487,167.50857 0,126.89476"
       id="path27-6"
       sodipodi:nodetypes="cc" /><path
       style="fill:none;fill-opacity:1;stroke:#000000;stroke-width:2.353;stroke-linejoin:round;stroke-dasharray:none;stroke-opacity:1;marker-end:url(#marker28)"
       d="m 152.12082,357.75148 c 34.14438,0 68.28875,0 85.36094,-9.28138 17.07218,-9.28137 17.07218,-27.84302 17.07218,-47.63054 0,-19.78751 0,-40.79852 3.31258,-51.30463 3.31257,-10.50611 9.93748,-10.50611 16.5625,-10.50611"
       id="path29"
       inkscape:path-effect="#path-effect29"
       inkscape:original-d="m 152.12082,357.75148 c 34.14438,0 68.28875,0 102.43312,0 0,-18.56275 0,-37.1244 0,-55.68717 0,-21.01226 0,-42.02327 0,-63.03549 6.62515,0 13.25006,0 19.87508,0"
       sodipodi:nodetypes="ccscc" /><path
       style="fill:none;fill-opacity:1;stroke:#000000;stroke-width:1;stroke-linejoin:round;stroke-dasharray:none;stroke-opacity:1;marker-end:url(#marker28)"
       d="m 321.05901,261.43378 c 0.2549,20.13635 0.50967,40.263 3.45967,50.32633 2.95,10.06334 8.595,10.06334 14.24011,10.06334"
       id="path30"
       inkscape:path-effect="#path-effect30"
       inkscape:original-d="m 321.05901,261.43378 c 0.76444,20.1299 0.76444,40.25977 0.76444,60.38967 5.64523,0 11.29023,0 16.93534,0"
       sodipodi:nodetypes="ccc" /></g></svg>
