<?xml version="1.0" encoding="UTF-8" standalone="no"?>
<!-- Created with Inkscape (http://www.inkscape.org/) -->

<svg
   width="640mm"
   height="480mm"
   viewBox="0 0 640 480"
   version="1.1"
   id="svg1"
   inkscape:version="1.4 (1:1.4+202410161351+e7c3feb100)"
   sodipodi:docname="esquema_general.svg"
   xml:space="preserve"
   inkscape:export-filename="esquema_general.pdf"
   inkscape:export-xdpi="96"
   inkscape:export-ydpi="96"
   xmlns:inkscape="http://www.inkscape.org/namespaces/inkscape"
   xmlns:sodipodi="http://sodipodi.sourceforge.net/DTD/sodipodi-0.dtd"
   xmlns="http://www.w3.org/2000/svg"
   xmlns:svg="http://www.w3.org/2000/svg"><sodipodi:namedview
     id="namedview1"
     pagecolor="#ffffff"
     bordercolor="#000000"
     borderopacity="0.25"
     inkscape:showpageshadow="2"
     inkscape:pageopacity="0.0"
     inkscape:pagecheckerboard="0"
     inkscape:deskcolor="#d1d1d1"
     inkscape:document-units="mm"
     inkscape:zoom="0.34612015"
     inkscape:cx="1053.1025"
     inkscape:cy="842.19309"
     inkscape:window-width="1920"
     inkscape:window-height="1008"
     inkscape:window-x="0"
     inkscape:window-y="0"
     inkscape:window-maximized="1"
     inkscape:current-layer="layer1"
     showgrid="false" /><defs
     id="defs1"><marker
       style="overflow:visible"
       id="marker31"
       refX="0"
       refY="0"
       orient="auto-start-reverse"
       inkscape:stockid="Triangle arrow"
       markerWidth="1"
       markerHeight="1"
       viewBox="0 0 1 1"
       inkscape:isstock="true"
       inkscape:collect="always"
       preserveAspectRatio="xMidYMid"><path
         transform="scale(0.5)"
         style="fill:context-stroke;fill-rule:evenodd;stroke:context-stroke;stroke-width:1pt"
         d="M 5.77,0 -2.88,5 V -5 Z"
         id="path31" /></marker><inkscape:path-effect
       effect="bspline"
       id="path-effect30"
       is_visible="true"
       lpeversion="1.3"
       weight="33.333333"
       steps="2"
       helper_size="0"
       apply_no_weight="true"
       apply_with_weight="true"
       only_selected="false"
       uniform="false" /><inkscape:path-effect
       effect="bspline"
       id="path-effect29"
       is_visible="true"
       lpeversion="1.3"
       weight="33.333333"
       steps="2"
       helper_size="0"
       apply_no_weight="true"
       apply_with_weight="true"
       only_selected="false"
       uniform="false" /><marker
       style="overflow:visible"
       id="marker28"
       refX="0"
       refY="0"
       orient="auto-start-reverse"
       inkscape:stockid="Triangle arrow"
       markerWidth="1"
       markerHeight="1"
       viewBox="0 0 1 1"
       inkscape:isstock="true"
       inkscape:collect="always"
       preserveAspectRatio="xMidYMid"><path
         transform="scale(0.5)"
         style="fill:context-stroke;fill-rule:evenodd;stroke:context-stroke;stroke-width:1pt"
         d="M 5.77,0 -2.88,5 V -5 Z"
         id="path28" /></marker><marker
       style="overflow:visible"
       id="marker26"
       refX="0"
       refY="0"
       orient="auto-start-reverse"
       inkscape:stockid="Triangle arrow"
       markerWidth="1"
       markerHeight="1"
       viewBox="0 0 1 1"
       inkscape:isstock="true"
       inkscape:collect="always"
       preserveAspectRatio="xMidYMid"><path
         transform="scale(0.5)"
         style="fill:context-stroke;fill-rule:evenodd;stroke:context-stroke;stroke-width:1pt"
         d="M 5.77,0 -2.88,5 V -5 Z"
         id="path26" /></marker><inkscape:path-effect
       effect="bspline"
       id="path-effect26"
       is_visible="true"
       lpeversion="1.3"
       weight="33.333333"
       steps="2"
       helper_size="0"
       apply_no_weight="true"
       apply_with_weight="true"
       only_selected="false"
       uniform="false" /><inkscape:path-effect
       effect="bspline"
       id="path-effect25"
       is_visible="true"
       lpeversion="1.3"
       weight="33.333333"
       steps="2"
       helper_size="0"
       apply_no_weight="true"
       apply_with_weight="true"
       only_selected="false"
       uniform="false" /><inkscape:path-effect
       effect="bspline"
       id="path-effect24"
       is_visible="true"
       lpeversion="1.3"
       weight="33.333333"
       steps="2"
       helper_size="0"
       apply_no_weight="true"
       apply_with_weight="true"
       only_selected="false"
       uniform="false" /><inkscape:path-effect
       effect="bspline"
       id="path-effect23"
       is_visible="true"
       lpeversion="1.3"
       weight="33.333333"
       steps="2"
       helper_size="0"
       apply_no_weight="true"
       apply_with_weight="true"
       only_selected="false"
       uniform="false" /><inkscape:path-effect
       effect="bspline"
       id="path-effect22"
       is_visible="true"
       lpeversion="1.3"
       weight="33.333333"
       steps="2"
       helper_size="0"
       apply_no_weight="true"
       apply_with_weight="true"
       only_selected="false"
       uniform="false" /><marker
       style="overflow:visible"
       id="Triangle"
       refX="0"
       refY="0"
       orient="auto-start-reverse"
       inkscape:stockid="Triangle arrow"
       markerWidth="1"
       markerHeight="1"
       viewBox="0 0 1 1"
       inkscape:isstock="true"
       inkscape:collect="always"
       preserveAspectRatio="xMidYMid"><path
         transform="scale(0.5)"
         style="fill:context-stroke;fill-rule:evenodd;stroke:context-stroke;stroke-width:1pt"
         d="M 5.77,0 -2.88,5 V -5 Z"
         id="path135" /></marker><marker
       style="overflow:visible"
       id="Triangle-4"
       refX="0"
       refY="0"
       orient="auto-start-reverse"
       inkscape:stockid="Triangle arrow"
       markerWidth="1"
       markerHeight="1"
       viewBox="0 0 1 1"
       inkscape:isstock="true"
       inkscape:collect="always"
       preserveAspectRatio="xMidYMid"><path
         transform="scale(0.5)"
         style="fill:context-stroke;fill-rule:evenodd;stroke:context-stroke;stroke-width:1pt"
         d="M 5.77,0 -2.88,5 V -5 Z"
         id="path135-7" /></marker><marker
       style="overflow:visible"
       id="marker28-7"
       refX="0"
       refY="0"
       orient="auto-start-reverse"
       inkscape:stockid="Triangle arrow"
       markerWidth="1"
       markerHeight="1"
       viewBox="0 0 1 1"
       inkscape:isstock="true"
       inkscape:collect="always"
       preserveAspectRatio="xMidYMid"><path
         transform="scale(0.5)"
         style="fill:context-stroke;fill-rule:evenodd;stroke:context-stroke;stroke-width:1pt"
         d="M 5.77,0 -2.88,5 V -5 Z"
         id="path28-8" /></marker><marker
       style="overflow:visible"
       id="marker28-3"
       refX="0"
       refY="0"
       orient="auto-start-reverse"
       inkscape:stockid="Triangle arrow"
       markerWidth="1"
       markerHeight="1"
       viewBox="0 0 1 1"
       inkscape:isstock="true"
       inkscape:collect="always"
       preserveAspectRatio="xMidYMid"><path
         transform="scale(0.5)"
         style="fill:context-stroke;fill-rule:evenodd;stroke:context-stroke;stroke-width:1pt"
         d="M 5.77,0 -2.88,5 V -5 Z"
         id="path28-1" /></marker><marker
       style="overflow:visible"
       id="marker28-6"
       refX="0"
       refY="0"
       orient="auto-start-reverse"
       inkscape:stockid="Triangle arrow"
       markerWidth="1"
       markerHeight="1"
       viewBox="0 0 1 1"
       inkscape:isstock="true"
       inkscape:collect="always"
       preserveAspectRatio="xMidYMid"><path
         transform="scale(0.5)"
         style="fill:context-stroke;fill-rule:evenodd;stroke:context-stroke;stroke-width:1pt"
         d="M 5.77,0 -2.88,5 V -5 Z"
         id="path28-89" /></marker></defs><g
     inkscape:label="Capa 1"
     inkscape:groupmode="layer"
     id="layer1"><g
       id="g12"
       transform="matrix(2.6143359,0,0,2.6143359,30.194662,-77.343651)"><path
         style="fill:#000000;fill-opacity:1;stroke-width:0.0518147"
         d="m 38.51496,76.790663 c -0.07163,-0.03548 -0.22894,-0.11171 -0.349583,-0.169438 -0.539265,-0.258054 -1.793927,-0.857033 -1.907515,-0.910654 l -0.125314,-0.05916 -0.203709,0.01231 c -0.112042,0.0067 -0.333265,0.01893 -0.491603,0.02705 -0.158344,0.0081 -0.398942,0.02069 -0.534662,0.02793 -0.13572,0.0072 -0.370153,0.0196 -0.52095,0.02752 -0.150803,0.0079 -0.385231,0.02022 -0.520956,0.02741 -0.13572,0.0072 -0.370148,0.0195 -0.52095,0.02741 -0.150803,0.0079 -0.38523,0.02022 -0.520951,0.02741 -0.13572,0.0072 -0.370147,0.0195 -0.520955,0.02741 -0.150797,0.0079 -0.385225,0.02022 -0.52095,0.02741 -0.135721,0.0072 -0.370148,0.0195 -0.520951,0.02741 -0.150802,0.0079 -0.38523,0.02022 -0.52095,0.02741 -0.13572,0.0072 -0.370153,0.0195 -0.52095,0.02741 -0.150803,0.0079 -0.38523,0.02022 -0.520956,0.02741 -0.13572,0.0072 -0.370148,0.0195 -0.52095,0.02741 -0.150803,0.0079 -0.38523,0.02022 -0.52095,0.02741 -0.135721,0.0072 -0.370153,0.0195 -0.520956,0.02736 -0.150797,0.0079 -0.382142,0.02012 -0.514097,0.02726 -0.13195,0.0071 -0.375631,0.0195 -0.541515,0.02752 -0.16588,0.008 -0.326996,0.01665 -0.358035,0.01914 l -0.05643,0.0047 -0.009,-0.172903 c -0.0052,-0.0951 -0.01495,-0.305542 -0.02224,-0.467651 -0.0073,-0.162114 -0.01945,-0.430472 -0.02705,-0.596351 -0.0075,-0.165885 -0.02002,-0.443496 -0.02767,-0.616917 -0.0077,-0.173426 -0.02002,-0.447954 -0.02741,-0.610063 -0.0074,-0.162114 -0.01986,-0.436642 -0.02762,-0.610063 -0.03548,-0.792748 -0.042,-0.936692 -0.0546,-1.213268 -0.0074,-0.162114 -0.01981,-0.436637 -0.02762,-0.610063 -0.03083,-0.686174 -0.04153,-0.923596 -0.05458,-1.209839 -0.0075,-0.163997 -0.01986,-0.440072 -0.02752,-0.613493 -0.01303,-0.295005 -0.01914,-0.430699 -0.05457,-1.206415 -0.0076,-0.165879 -0.02002,-0.443495 -0.02767,-0.616916 -0.0076,-0.173421 -0.01997,-0.447949 -0.02736,-0.610063 -0.0074,-0.162109 -0.01981,-0.436638 -0.02762,-0.610064 -0.03083,-0.686173 -0.04153,-0.923595 -0.05458,-1.209838 -0.0075,-0.163997 -0.01986,-0.440067 -0.02752,-0.613488 -0.0077,-0.173426 -0.01997,-0.447949 -0.02736,-0.610063 -0.0074,-0.162114 -0.01976,-0.433554 -0.02752,-0.60321 -0.0077,-0.16965 -0.02027,-0.438008 -0.02788,-0.596351 -0.0076,-0.158339 -0.01769,-0.4391 -0.0224,-0.62391 l -0.0086,-0.336011 3.57211,-0.238084 3.57211,-0.238079 0.45534,0.416439 c 0.250436,0.229043 0.459442,0.418069 0.464459,0.42006 0.0071,0.0026 1.140127,-2.305463 1.265099,-2.577535 l 0.0299,-0.06512 h 0.16064 0.16064 l 0.347406,0.159523 c 0.191068,0.08774 0.899544,0.41388 1.574379,0.724769 1.640182,0.755595 3.560488,1.640155 3.980921,1.833738 0.187608,0.08639 0.346153,0.166081 0.352319,0.177098 0.0062,0.01102 0.252685,0.719803 0.54782,1.575063 0.295129,0.855264 0.654451,1.894331 0.798483,2.309037 0.213589,0.614977 0.262793,0.77044 0.266843,0.843121 l 0.0052,0.08911 -0.591754,1.240687 c -0.325464,0.682381 -0.809391,1.697205 -1.075396,2.255174 -0.265999,0.557968 -0.710177,1.489508 -0.987059,2.070094 -0.276881,0.580592 -0.750459,1.573827 -1.05239,2.207196 -0.301936,0.633365 -0.623966,1.308888 -0.715634,1.501162 l -0.166661,0.349588 -0.170555,0.0026 -0.170556,0.0026 z m 0.503354,-1.781415 c 0.250457,-0.525885 0.693689,-1.455857 0.98497,-2.066603 0.291281,-0.610746 0.775136,-1.625575 1.075241,-2.255174 0.3001,-0.629594 0.805554,-1.689991 1.123229,-2.356431 l 0.577592,-1.211712 -0.173364,-0.501947 c -0.09535,-0.27607 -0.224502,-0.650004 -0.287004,-0.830966 -0.155623,-0.450566 -0.64059,-1.855725 -0.787797,-2.282592 -0.155318,-0.450395 -0.191214,-0.55232 -0.195481,-0.555076 -0.0021,-10e-4 -0.614232,-0.283404 -1.360703,-0.627044 -0.746467,-0.343635 -1.988756,-0.915842 -2.760644,-1.27157 -0.771888,-0.355722 -1.408469,-0.641655 -1.414629,-0.635402 -0.01,0.01009 -1.107475,2.257543 -1.113899,2.280994 -0.0016,0.0052 0.49556,0.464402 1.104423,1.02042 l 1.107025,1.010944 3.36e-4,0.05669 c 5.17e-4,0.09601 0.0374,0.722849 0.04262,0.727908 0.0026,0.0026 0.872628,0.419258 1.933139,0.925866 l 1.928199,0.921102 -0.120209,0.248926 c -0.08012,0.165921 -0.126519,0.24742 -0.139144,0.244405 -0.01691,-0.0041 -3.141953,-1.494127 -3.444996,-1.642639 -0.06718,-0.03289 -0.123416,-0.05826 -0.124983,-0.05632 -0.0047,0.006 0.04464,0.888677 0.05007,0.893493 0.0067,0.0059 3.042009,1.456048 3.127083,1.493977 0.03564,0.01588 0.06494,0.03269 0.06512,0.03729 1.56e-4,0.0047 -0.05366,0.119774 -0.119634,0.255923 l -0.119955,0.247534 -1.459168,-0.697769 c -0.802539,-0.383771 -1.460311,-0.696352 -1.461718,-0.694619 -0.0047,0.0055 0.04836,0.948494 0.05392,0.962801 0.0031,0.0076 0.566663,0.281599 1.252733,0.609013 l 1.247394,0.595302 -0.115527,0.240965 c -0.06354,0.132529 -0.120131,0.2456 -0.125754,0.251269 -0.0056,0.0057 -0.506524,-0.227006 -1.113107,-0.517061 l -1.102881,-0.527374 -0.0041,0.04924 c -0.0064,0.07261 0.03822,0.832449 0.04955,0.842716 0.0053,0.0047 0.413735,0.201367 0.907613,0.436767 0.493874,0.2354 0.902731,0.432432 0.90857,0.437858 0.0079,0.0073 -0.207909,0.48387 -0.22834,0.504301 -0.0021,0.0021 -0.339248,-0.157387 -0.749688,-0.353954 -0.410435,-0.196566 -0.761088,-0.363243 -0.779227,-0.370386 l -0.033,-0.01298 0.0091,0.188974 c 0.0052,0.103931 0.02752,0.532903 0.05012,0.953263 0.09929,1.847181 0.123954,2.313088 0.151144,2.85495 0.01588,0.316687 0.03341,0.584486 0.03895,0.595115 0.0076,0.01459 1.05014,0.5283 1.08481,0.534538 0.0036,5.17e-4 0.211773,-0.429039 0.46223,-0.954924 z m -6.872804,0.09067 4.522549,-0.237764 -0.0091,-0.198889 c -0.0052,-0.109388 -0.02121,-0.424064 -0.0361,-0.699274 -0.01485,-0.275217 -0.04557,-0.847403 -0.06827,-1.271534 -0.08644,-1.616374 -0.124631,-2.330146 -0.150916,-2.820678 -0.01495,-0.278987 -0.04583,-0.855803 -0.06861,-1.281816 -0.02276,-0.426014 -0.05963,-1.113878 -0.08186,-1.528585 -0.02224,-0.414702 -0.05316,-1.006941 -0.06872,-1.316087 -0.01557,-0.309141 -0.03274,-0.588407 -0.03822,-0.620579 -0.0097,-0.05685 -0.05562,-0.100212 -1.632738,-1.540212 L 32.890722,62.102792 29.85238,62.30512 c -1.671086,0.111276 -3.040189,0.203694 -3.042449,0.205375 -0.0021,0.0016 0.01479,0.418659 0.03791,0.926611 0.02312,0.507953 0.05728,1.262855 0.07593,1.677562 0.01862,0.414701 0.05248,1.165797 0.07518,1.669099 0.02271,0.503303 0.05984,1.326887 0.08252,1.830185 0.02271,0.503302 0.05349,1.186538 0.06846,1.518302 0.02472,0.547536 0.0765,1.698938 0.151107,3.358764 0.01526,0.339306 0.03993,0.880102 0.05483,1.20177 0.0149,0.321668 0.0271,0.601736 0.0271,0.622373 v 0.0375 l 0.119955,-0.0075 c 0.06597,-0.0041 2.155102,-0.114494 4.642505,-0.245264 z m -3.615464,-3.942987 c -0.0047,-0.04329 -0.01221,-0.169133 -0.01722,-0.279612 l -0.0092,-0.200876 0.101165,-0.0085 c 0.15433,-0.01303 6.128971,-0.325216 6.133104,-0.320458 0.0036,0.0041 0.03269,0.551001 0.02938,0.554467 -10e-4,0.001 -1.371394,0.07348 -3.045294,0.16093 -1.673899,0.08745 -3.07505,0.162119 -3.113666,0.165921 l -0.07021,0.0069 z m -0.06973,-1.309146 c -0.0036,-0.01696 -0.01128,-0.14037 -0.01738,-0.274234 l -0.01112,-0.243391 0.04112,-0.0061 c 0.04252,-0.0063 6.100332,-0.324001 6.163548,-0.323251 l 0.03548,3.41e-4 0.01293,0.270758 c 0.0071,0.148915 0.0097,0.274409 0.0056,0.278873 -0.0064,0.0071 -6.089171,0.32997 -6.186487,0.328371 -0.02757,-5.07e-4 -0.0391,-0.0087 -0.04371,-0.03145 z m -0.08193,-1.555998 c -0.0047,-0.09614 -0.01236,-0.222604 -0.01681,-0.28104 l -0.008,-0.106249 0.04598,-3.41e-4 c 0.02529,-3.36e-4 1.427876,-0.07358 3.116858,-0.162978 1.688976,-0.0894 3.072086,-0.161509 3.073565,-0.160242 0.0068,0.0058 0.03398,0.545146 0.02777,0.551363 -0.0052,0.0052 -6.112952,0.333632 -6.215136,0.334273 -0.01024,5.2e-5 -0.01841,-0.05898 -0.02421,-0.174693 z m -0.06802,-1.301972 c -0.0047,-0.07374 -0.01247,-0.199758 -0.01727,-0.280037 l -0.0088,-0.145961 0.128588,-0.009 c 0.212751,-0.0149 6.103524,-0.322899 6.10672,-0.31932 0.0047,0.0055 0.03414,0.548632 0.02979,0.552987 -0.0021,0.0021 -1.36107,0.07505 -3.019681,0.161871 -1.65861,0.08682 -3.059574,0.161375 -3.113257,0.165684 l -0.0976,0.0079 z"
         id="path2" /><text
         xml:space="preserve"
         style="font-style:normal;font-variant:normal;font-weight:normal;font-stretch:normal;font-size:3.88056px;font-family:sans-serif;-inkscape-font-specification:'sans-serif, Normal';font-variant-ligatures:normal;font-variant-caps:normal;font-variant-numeric:normal;font-variant-east-asian:normal;text-align:center;writing-mode:lr-tb;direction:ltr;text-anchor:middle;fill:#000000;fill-opacity:1;stroke:none;stroke-width:0.899999;stroke-linejoin:round;stroke-dasharray:none;stroke-opacity:1"
         x="34.709511"
         y="80.086784"
         id="text2"><tspan
           sodipodi:role="line"
           id="tspan2"
           x="34.709511"
           y="80.086784">Documentos</tspan></text></g><g
       id="g14"
       transform="matrix(2.6143359,0,0,2.6143359,31.319329,-77.343651)"><g
         id="g13"><rect
           style="fill:none;fill-opacity:1;stroke:#000000;stroke-width:0.600001;stroke-linejoin:round;stroke-dasharray:none;stroke-opacity:1"
           id="rect2"
           width="29.243019"
           height="1.986827"
           x="19.746864"
           y="92.216194"
           ry="0.99341351" /><rect
           style="fill:none;fill-opacity:1;stroke:#000000;stroke-width:0.600001;stroke-linejoin:round;stroke-dasharray:none;stroke-opacity:1"
           id="rect2-6"
           width="29.243019"
           height="1.986827"
           x="19.746864"
           y="95.614021"
           ry="0.99341351" /><rect
           style="fill:none;fill-opacity:1;stroke:#000000;stroke-width:0.600001;stroke-linejoin:round;stroke-dasharray:none;stroke-opacity:1"
           id="rect2-0"
           width="29.243019"
           height="1.986827"
           x="19.746864"
           y="102.40968"
           ry="0.99341351" /><rect
           style="fill:none;fill-opacity:1;stroke:#000000;stroke-width:0.600001;stroke-linejoin:round;stroke-dasharray:none;stroke-opacity:1"
           id="rect2-9"
           width="29.243019"
           height="1.986827"
           x="19.746864"
           y="105.8075"
           ry="0.99341351" /><rect
           style="fill:none;fill-opacity:1;stroke:#000000;stroke-width:0.600001;stroke-linejoin:round;stroke-dasharray:none;stroke-opacity:1"
           id="rect2-1"
           width="29.243019"
           height="1.986827"
           x="19.746864"
           y="109.20529"
           ry="0.99341351" /><rect
           style="fill:none;fill-opacity:1;stroke:#000000;stroke-width:0.600001;stroke-linejoin:round;stroke-dasharray:none;stroke-opacity:1"
           id="rect2-8"
           width="29.243019"
           height="1.986827"
           x="19.746864"
           y="99.011848"
           ry="0.99341351" /></g><text
         xml:space="preserve"
         style="font-style:normal;font-variant:normal;font-weight:normal;font-stretch:normal;font-size:3.88056px;font-family:sans-serif;-inkscape-font-specification:'sans-serif, Normal';font-variant-ligatures:normal;font-variant-caps:normal;font-variant-numeric:normal;font-variant-east-asian:normal;text-align:center;writing-mode:lr-tb;direction:ltr;text-anchor:middle;fill:#000000;fill-opacity:1;stroke:none;stroke-width:0.899999;stroke-linejoin:round;stroke-dasharray:none;stroke-opacity:1"
         x="34.27932"
         y="115.82449"
         id="text2-6"><tspan
           sodipodi:role="line"
           id="tspan1"
           x="34.27932"
           y="115.82449">Partes</tspan></text></g><g
       id="g19"
       transform="matrix(2.6143359,0,0,2.6143359,-43.390771,-64.193316)"><g
         id="g18"><rect
           style="fill:none;fill-opacity:1;stroke:#000000;stroke-width:0.600001;stroke-linejoin:round;stroke-dasharray:none;stroke-opacity:1"
           id="rect2-9-9"
           width="29.243019"
           height="1.986827"
           x="125.65437"
           y="113.26953"
           ry="0.99341351" /><rect
           style="fill:none;fill-opacity:1;stroke:#000000;stroke-width:0.600001;stroke-linejoin:round;stroke-dasharray:none;stroke-opacity:1"
           id="rect2-1-4"
           width="29.243019"
           height="1.986827"
           x="125.65437"
           y="116.66733"
           ry="0.99341351" /></g><text
         xml:space="preserve"
         style="font-style:normal;font-variant:normal;font-weight:normal;font-stretch:normal;font-size:3.88056px;font-family:sans-serif;-inkscape-font-specification:'sans-serif, Normal';font-variant-ligatures:normal;font-variant-caps:normal;font-variant-numeric:normal;font-variant-east-asian:normal;text-align:center;writing-mode:lr-tb;direction:ltr;text-anchor:middle;fill:#000000;fill-opacity:1;stroke:none;stroke-width:0.899999;stroke-linejoin:round;stroke-dasharray:none;stroke-opacity:1"
         x="140.34253"
         y="123.28652"
         id="text2-6-7"><tspan
           sodipodi:role="line"
           id="tspan9"
           x="140.34253"
           y="123.28652">Partes relevantes</tspan></text></g><g
       id="g16"
       transform="matrix(2.6143359,0,0,2.6143359,32.961533,-77.343651)"><path
         style="fill:none;fill-opacity:1;stroke:#000000;stroke-width:0.129578;stroke-dasharray:none;stroke-opacity:1"
         d="m 31.797462,180.1672 c -2.284996,-0.12689 -4.505276,-0.51205 -6.215168,-1.0782 -1.717353,-0.56861 -2.91056,-1.36023 -3.333025,-2.21127 l -0.137065,-0.27611 -0.01642,-2.70574 c -0.01208,-1.98962 0.0011,-2.72686 0.04985,-2.78558 0.08127,-0.0979 0.290882,-0.10409 0.38369,-0.0113 0.05117,0.0511 0.06967,0.72176 0.07292,2.64273 0.0031,1.81909 0.02402,2.62753 0.07142,2.75611 0.428406,1.16197 2.677877,2.21921 5.923946,2.78421 3.349256,0.58296 7.471109,0.55075 10.742352,-0.084 3.009911,-0.58398 5.0599,-1.59655 5.466824,-2.70026 0.0474,-0.12858 0.06835,-0.93702 0.07143,-2.75611 0.0032,-1.92097 0.02175,-2.59156 0.07292,-2.64273 0.106318,-0.10632 0.320757,-0.081 0.388681,0.0459 0.04181,0.0781 0.05607,0.96339 0.04486,2.78558 l -0.01642,2.67107 -0.161944,0.30757 c -1.155043,2.19374 -6.999969,3.61391 -13.408847,3.25802 z m 4.428364,-0.169 c 0.439979,-0.0329 1.06995,-0.0972 1.399934,-0.14275 0.329985,-0.0455 0.713316,-0.0963 0.851848,-0.11274 0.572014,-0.0679 2.048061,-0.38737 2.786442,-0.60307 2.09801,-0.61286 3.405179,-1.40446 3.83547,-2.32271 l 0.154452,-0.3296 0.01702,-2.59073 c 0.01732,-2.63677 0.0064,-2.79017 -0.192606,-2.71379 -0.06897,0.0265 -0.08153,0.43359 -0.08153,2.64241 v 2.61111 l -0.146646,0.29428 c -0.588965,1.18189 -3.096442,2.26645 -6.369749,2.7551 -1.738119,0.25947 -2.509831,0.31013 -4.74022,0.31117 -2.30657,0.001 -3.222482,-0.0628 -4.940105,-0.34448 -3.246416,-0.53238 -5.595174,-1.56852 -6.169872,-2.72179 l -0.146644,-0.29428 v -2.61111 c 0,-2.20882 -0.01256,-2.61594 -0.08153,-2.64241 -0.199033,-0.0764 -0.20992,0.077 -0.192608,2.71379 l 0.01701,2.59073 0.156341,0.33373 c 0.466135,0.99501 2.016604,1.8629 4.443443,2.48723 0.638933,0.16437 1.707587,0.37334 2.228467,0.43577 0.141421,0.0169 0.2957,0.0421 0.342841,0.0558 0.09556,0.0279 1.640318,0.19046 2.085616,0.21948 0.725072,0.0472 4.025901,0.0325 4.742634,-0.0212 z m -4.485504,-6.60205 c -2.401052,-0.19677 -3.371504,-0.33871 -4.885484,-0.71455 -2.447428,-0.60757 -4.071483,-1.51297 -4.583259,-2.55512 l -0.159375,-0.32454 -0.01644,-2.67714 c -0.01209,-1.96842 0.0011,-2.69828 0.04985,-2.75701 0.09068,-0.10927 0.374375,-0.10213 0.417596,0.0105 0.01908,0.0497 0.03469,1.24031 0.03469,2.64579 v 2.55542 l 0.146645,0.29428 c 0.671534,1.34759 3.658774,2.461 7.795839,2.90567 1.297085,0.13942 4.292564,0.16873 5.685447,0.0556 4.454763,-0.36173 7.793644,-1.52357 8.51009,-2.96129 l 0.146646,-0.29428 v -2.55542 c 0,-1.40548 0.01561,-2.59609 0.03469,-2.6458 0.04322,-0.11263 0.326916,-0.11977 0.417595,-0.0106 0.04874,0.0587 0.06194,0.78859 0.04985,2.75702 l -0.01643,2.67714 -0.159415,0.32462 c -0.74981,1.52687 -3.807479,2.70707 -8.21162,3.16951 -0.77529,0.0814 -4.596963,0.15416 -5.256896,0.10008 z m 3.971242,-0.13883 c 3.5951,-0.21328 6.748708,-1.00938 8.371035,-2.11319 0.420466,-0.28607 0.892088,-0.79461 1.046002,-1.12787 0.12338,-0.26715 0.125371,-0.31369 0.125371,-2.92848 0,-2.61893 -0.0017,-2.65702 -0.114281,-2.65702 -0.112231,0 -0.11479,0.0476 -0.142848,2.65702 -0.02777,2.58256 -0.03202,2.66342 -0.151526,2.88558 -0.793683,1.47537 -4.208847,2.6583 -8.657854,2.99888 -1.643347,0.1258 -4.506407,0.0716 -6.132776,-0.11615 -3.839049,-0.44312 -6.703088,-1.55595 -7.419148,-2.88273 -0.120038,-0.22242 -0.124122,-0.29998 -0.151924,-2.88558 -0.02806,-2.6094 -0.03062,-2.65702 -0.14285,-2.65702 -0.112643,0 -0.114281,0.0381 -0.114281,2.65702 0,2.60932 0.0022,2.66185 0.124524,2.92656 0.631932,1.36787 3.381302,2.52472 7.217988,3.0371 0.593246,0.0792 1.734076,0.18358 2.485597,0.22737 0.730281,0.0426 2.780595,0.0305 3.656971,-0.0215 z m -3.797365,-6.62711 c -2.945946,-0.17527 -5.404837,-0.66179 -7.231631,-1.43085 -1.26036,-0.53059 -2.026444,-1.118 -2.418306,-1.85426 l -0.152058,-0.2857 -0.01701,-2.62798 c -0.0094,-1.44539 -0.0029,-2.68434 0.01442,-2.75321 0.03859,-0.15378 0.215659,-0.21758 0.371846,-0.134 0.114421,0.0613 0.116514,0.10708 0.120786,2.6459 0.0031,1.8263 0.02401,2.63691 0.07142,2.76552 0.351157,0.95245 1.929681,1.84436 4.339573,2.45197 5.086675,1.2825 12.416691,0.87283 16.012265,-0.89494 0.972768,-0.47826 1.578896,-1.00808 1.781283,-1.55703 0.04742,-0.12861 0.06835,-0.93922 0.07143,-2.76552 0.0043,-2.53882 0.0064,-2.58466 0.120786,-2.6459 0.156186,-0.0836 0.33325,-0.0198 0.371846,0.134 0.01728,0.0689 0.02378,1.30782 0.01443,2.75321 l -0.01702,2.62798 -0.16071,0.30514 c -0.849468,1.61288 -4.165767,2.81968 -8.810296,3.20605 -0.997266,0.083 -3.525581,0.11659 -4.483047,0.0596 z m 4.254486,-0.17585 c 4.57784,-0.31906 8.193112,-1.60481 8.928947,-3.17552 l 0.15634,-0.33372 0.01702,-2.59074 c 0.01732,-2.63677 0.0064,-2.79016 -0.192606,-2.71379 -0.06893,0.0264 -0.08158,0.42573 -0.08185,2.5822 -1.97e-4,1.57153 -0.02288,2.63215 -0.05909,2.76252 -0.148764,0.53563 -0.833381,1.14201 -1.854789,1.64282 -1.568119,0.76886 -3.832794,1.30248 -6.599688,1.55505 -1.217684,0.11115 -4.567822,0.094 -5.771158,-0.0295 -4.187635,-0.4299 -7.07618,-1.44974 -7.985901,-2.81954 l -0.213722,-0.32181 -0.01648,-2.66003 c -0.01674,-2.70351 -0.02858,-2.84494 -0.224453,-2.68237 -0.09562,0.0794 -0.106389,4.80121 -0.01196,5.24152 0.08653,0.40346 0.438607,0.91642 0.862714,1.25691 0.416255,0.3342 1.618909,0.94993 2.34299,1.19955 2.76294,0.95252 6.778024,1.36006 10.703684,1.08646 z m -4.342652,-6.60214 c -3.116081,-0.19947 -5.76109,-0.76052 -7.493346,-1.58945 -0.7958,-0.38082 -1.214626,-0.66448 -1.637289,-1.10888 -0.539081,-0.56682 -0.71061,-1.12489 -0.533259,-1.73495 0.502022,-1.72689 3.836734,-3.06963 8.692511,-3.50007 1.276246,-0.11314 4.466141,-0.11579 5.714017,-0.005 2.916996,0.25955 5.156857,0.79183 6.799209,1.61577 0.659212,0.33071 0.950943,0.53214 1.359521,0.93868 0.448943,0.44671 0.639634,0.86214 0.63857,1.39117 -0.0011,0.51613 -0.144134,0.83491 -0.580908,1.29416 -1.220724,1.28352 -3.895651,2.17361 -7.798242,2.59489 -0.782884,0.0845 -4.342029,0.15585 -5.160784,0.10344 z m 5.028334,-0.2193 c 4.359133,-0.42962 7.59555,-1.66618 8.272671,-3.1608 0.35749,-0.78909 -0.0403,-1.70689 -1.027283,-2.37017 -1.612223,-1.08347 -4.211382,-1.78439 -7.816789,-2.10798 -1.004884,-0.0902 -4.288639,-0.0887 -5.171186,0.002 -1.852657,0.19118 -2.92242,0.359 -4.056952,0.63646 -3.119346,0.76284 -4.828737,1.90633 -4.823858,3.2269 0.0018,0.49459 0.175424,0.8254 0.704648,1.3428 1.35917,1.32878 4.66893,2.25291 9.090405,2.53816 0.749595,0.0483 3.974531,-0.0237 4.828344,-0.10778 z m -5.856867,-0.2321 c -3.024729,-0.2667 -5.489475,-0.88207 -7.009543,-1.75007 -0.874072,-0.49912 -1.502352,-1.23843 -1.503784,-1.76954 -0.0061,-2.26234 6.330438,-4.03406 13.05597,-3.65051 4.120974,0.23501 7.401819,1.13298 8.796456,2.4076 0.862637,0.7884 0.875824,1.54701 0.04085,2.34996 -1.301924,1.25198 -4.274566,2.13094 -8.259916,2.44231 -0.999837,0.0781 -4.101044,0.0601 -5.120032,-0.0297 z m 4.999765,-0.0856 c 3.982815,-0.28981 7.20463,-1.24949 8.370545,-2.49335 0.395873,-0.42234 0.544701,-0.7632 0.490641,-1.12371 -0.215677,-1.43824 -3.340793,-2.74302 -7.746953,-3.23446 -2.9112,-0.32469 -6.497136,-0.18025 -9.165081,0.36917 -3.651959,0.75207 -5.739428,2.09525 -5.26294,3.38642 0.132261,0.35839 0.783782,0.99175 1.350376,1.31272 1.571196,0.89008 4.188638,1.52691 7.306488,1.77771 0.869929,0.07 3.724421,0.0734 4.656924,0.006 z"
         id="path1"
         sodipodi:nodetypes="ssscsssssssssssccssscsssscssscssssscssscsssssccssscsssscsssscscsscsssssssssssssssssssssssscsssssssssscccsssssscsssssssscsssssssssssssscssscssscssssccsssssssscssssssscc" /><text
         xml:space="preserve"
         style="font-style:normal;font-variant:normal;font-weight:normal;font-stretch:normal;font-size:3.88056px;font-family:sans-serif;-inkscape-font-specification:'sans-serif, Normal';font-variant-ligatures:normal;font-variant-caps:normal;font-variant-numeric:normal;font-variant-east-asian:normal;text-align:center;writing-mode:lr-tb;direction:ltr;text-anchor:middle;fill:#000000;fill-opacity:1;stroke:none;stroke-width:0.899999;stroke-linejoin:round;stroke-dasharray:none;stroke-opacity:1"
         x="33.651165"
         y="184.35576"
         id="text2-6-1"><tspan
           sodipodi:role="line"
           id="tspan5"
           x="33.651165"
           y="184.35576">Base de datos</tspan><tspan
           sodipodi:role="line"
           id="tspan6"
           x="33.651165"
           y="189.20645">de vectores</tspan></text></g><g
       id="g15"
       transform="matrix(2.6143359,0,0,2.6143359,26.332948,-77.343651)"><rect
         style="fill:none;fill-opacity:1;stroke:#000000;stroke-width:0.9;stroke-linejoin:round;stroke-dasharray:none;stroke-opacity:1"
         id="rect1"
         width="63.153191"
         height="15.609686"
         x="4.6991"
         y="125.19469"
         ry="5.7547798" /><text
         xml:space="preserve"
         style="font-style:normal;font-variant:normal;font-weight:normal;font-stretch:normal;font-size:7.05556px;font-family:sans-serif;-inkscape-font-specification:'sans-serif, Normal';font-variant-ligatures:normal;font-variant-caps:normal;font-variant-numeric:normal;font-variant-east-asian:normal;text-align:center;writing-mode:lr-tb;direction:ltr;text-anchor:middle;fill:#000000;fill-opacity:1;stroke:none;stroke-width:0.899999;stroke-linejoin:round;stroke-dasharray:none;stroke-opacity:1"
         x="36.253304"
         y="134.82372"
         id="text2-6-8"><tspan
           sodipodi:role="line"
           id="tspan4"
           x="36.253304"
           y="134.82372">embeddings</tspan></text></g><g
       id="g17"
       transform="matrix(2.6143359,0,0,2.6143359,-72.284425,-75.59298)"><rect
         style="fill:none;fill-opacity:1;stroke:#000000;stroke-width:0.9;stroke-linejoin:round;stroke-dasharray:none;stroke-opacity:1"
         id="rect1-6"
         width="63.153191"
         height="15.609686"
         x="142.7726"
         y="74.158089"
         ry="5.7547798" /><text
         xml:space="preserve"
         style="font-style:normal;font-variant:normal;font-weight:normal;font-stretch:normal;font-size:7.05556px;font-family:sans-serif;-inkscape-font-specification:'sans-serif, Normal';font-variant-ligatures:normal;font-variant-caps:normal;font-variant-numeric:normal;font-variant-east-asian:normal;text-align:center;writing-mode:lr-tb;direction:ltr;text-anchor:middle;fill:#000000;fill-opacity:1;stroke:none;stroke-width:0.899999;stroke-linejoin:round;stroke-dasharray:none;stroke-opacity:1"
         x="174.22862"
         y="84.484741"
         id="text2-6-8-1"><tspan
           sodipodi:role="line"
           id="tspan3"
           x="174.22862"
           y="84.484741">Controlador</tspan></text></g><text
       xml:space="preserve"
       style="font-style:normal;font-variant:normal;font-weight:normal;font-stretch:normal;font-size:18.4456px;font-family:sans-serif;-inkscape-font-specification:'sans-serif, Normal';font-variant-ligatures:normal;font-variant-caps:normal;font-variant-numeric:normal;font-variant-east-asian:normal;text-align:center;writing-mode:lr-tb;direction:ltr;text-anchor:middle;fill:#000000;fill-opacity:1;stroke:none;stroke-width:2.3529;stroke-linejoin:round;stroke-dasharray:none;stroke-opacity:1"
       x="108.63804"
       y="55.220757"
       id="text2-6-8-4"><tspan
         sodipodi:role="line"
         id="tspan7"
         x="108.63804"
         y="55.220757">Extractor de información</tspan></text><text
       xml:space="preserve"
       style="font-style:normal;font-variant:normal;font-weight:normal;font-stretch:normal;font-size:18.4456px;font-family:sans-serif;-inkscape-font-specification:'sans-serif, Normal';font-variant-ligatures:normal;font-variant-caps:normal;font-variant-numeric:normal;font-variant-east-asian:normal;text-align:center;writing-mode:lr-tb;direction:ltr;text-anchor:middle;fill:#000000;fill-opacity:1;stroke:none;stroke-width:2.3529;stroke-linejoin:round;stroke-dasharray:none;stroke-opacity:1"
       x="352.97467"
       y="53.288837"
       id="text2-6-8-4-5"><tspan
         sodipodi:role="line"
         id="tspan8"
         x="352.97467"
         y="53.288837">Modelador de lenguaje</tspan></text><rect
       style="fill:none;fill-opacity:1;stroke:#000000;stroke-width:2.3529;stroke-linejoin:round;stroke-dasharray:none;stroke-opacity:1"
       id="rect6"
       width="219.59576"
       height="378.19818"
       x="11.371907"
       y="60.702389"
       ry="15.834405" /><rect
       style="fill:none;fill-opacity:1;stroke:#000000;stroke-width:2.3529;stroke-linejoin:round;stroke-dasharray:none;stroke-opacity:1"
       id="rect6-4"
       width="219.59576"
       height="378.19818"
       x="261.82855"
       y="60.702389"
       ry="15.834405" /><rect
       style="fill:none;fill-opacity:1;stroke:#000000;stroke-width:2.3529;stroke-linejoin:round;stroke-dasharray:none;stroke-opacity:1"
       id="rect6-4-6"
       width="44.064156"
       height="378.19818"
       x="512.28516"
       y="60.702389"
       ry="15.834405" /><rect
       style="fill:none;fill-opacity:1;stroke:#000000;stroke-width:2.353;stroke-linejoin:round;stroke-dasharray:none;stroke-opacity:1"
       id="rect6-4-6-4"
       width="44.064156"
       height="378.19818"
       x="587.21021"
       y="60.702389"
       ry="15.834405" /><text
       xml:space="preserve"
       style="font-style:normal;font-variant:normal;font-weight:normal;font-stretch:normal;font-size:33.2021px;font-family:sans-serif;-inkscape-font-specification:'sans-serif, Normal';font-variant-ligatures:normal;font-variant-caps:normal;font-variant-numeric:normal;font-variant-east-asian:normal;text-align:center;writing-mode:lr-tb;direction:ltr;text-anchor:middle;fill:#000000;fill-opacity:1;stroke:none;stroke-width:2.3529;stroke-linejoin:round;stroke-dasharray:none;stroke-opacity:1"
       x="-249.26581"
       y="545.28717"
       id="text2-6-8-4-5-7"
       transform="rotate(-90.103333)"><tspan
         sodipodi:role="line"
         id="tspan11"
         x="-249.26581"
         y="545.28717"
         style="stroke-width:2.3529">API</tspan></text><text
       xml:space="preserve"
       style="font-style:normal;font-variant:normal;font-weight:normal;font-stretch:normal;font-size:33.2021px;font-family:sans-serif;-inkscape-font-specification:'sans-serif, Normal';font-variant-ligatures:normal;font-variant-caps:normal;font-variant-numeric:normal;font-variant-east-asian:normal;text-align:center;writing-mode:lr-tb;direction:ltr;text-anchor:middle;fill:#000000;fill-opacity:1;stroke:none;stroke-width:2.3529;stroke-linejoin:round;stroke-dasharray:none;stroke-opacity:1"
       x="-250.23138"
       y="617.50549"
       id="text2-6-8-4-5-7-2"
       transform="rotate(-90.103333)"><tspan
         sodipodi:role="line"
         id="tspan12"
         x="-250.23138"
         y="617.50549"
         style="stroke-width:2.3529">Aplicación Web</tspan></text><g
       id="g20"
       transform="matrix(2.6143359,0,0,2.6143359,-72.975662,-84.153067)"><path
         style="fill:none;stroke:#000000;stroke-width:0.517506;stroke-dasharray:none;stroke-opacity:1"
         d="m 179.66603,170.99785 c -0.11132,-0.0271 -0.22253,-0.0915 -0.27647,-0.16005 -0.062,-0.0789 -0.0812,-0.0774 -0.13115,0.0104 -0.11063,0.19446 -0.59207,0.13663 -0.82346,-0.0989 -0.10838,-0.11031 -0.32256,-0.4759 -0.45867,-0.78287 -0.12598,-0.28414 -0.20953,-0.41317 -0.51979,-0.80262 -0.23557,-0.29571 -0.28027,-0.38895 -0.31877,-0.66479 -0.0268,-0.19216 -0.0679,-0.27768 -0.2275,-0.47383 -0.15214,-0.18697 -0.25203,-0.39181 -0.30313,-0.62167 -0.0324,-0.14536 -0.0584,-0.20071 -0.13145,-0.27903 -0.0824,-0.0883 -0.10673,-0.0996 -0.25324,-0.11722 -0.20812,-0.0251 -0.3974,-0.11544 -0.56773,-0.27111 -0.17068,-0.15598 -0.22861,-0.25583 -0.35184,-0.60636 -0.0544,-0.15467 -0.11832,-0.29571 -0.1421,-0.31341 -0.028,-0.0208 -0.0778,-0.0271 -0.14106,-0.0178 -0.22603,0.0333 -0.79864,0.0425 -0.90894,0.0148 -0.0621,-0.0156 -0.26593,-0.0887 -0.45304,-0.16234 -0.49613,-0.1953 -0.55447,-0.20733 -1.12016,-0.23097 -1.42091,-0.0594 -1.50602,-0.0713 -2.15945,-0.30398 -0.58294,-0.20755 -0.79587,-0.30366 -0.88202,-0.39812 -0.042,-0.0462 -0.10866,-0.11325 -0.14798,-0.14915 -0.0393,-0.0359 -0.11634,-0.11384 -0.17118,-0.17321 -0.0548,-0.0594 -0.13945,-0.14829 -0.18805,-0.1976 -0.12013,-0.12187 -0.2035,-0.34362 -0.28665,-0.76242 -0.0384,-0.19343 -0.0818,-0.37399 -0.0963,-0.40125 -0.0146,-0.0273 -0.0851,-0.0808 -0.15664,-0.11907 -0.0716,-0.0382 -0.14868,-0.0855 -0.17137,-0.10506 -0.0366,-0.0315 -0.0504,-0.0287 -0.12227,0.0251 -0.0445,0.0333 -0.11402,0.0662 -0.15437,0.073 -0.0403,0.007 -0.20542,0.0416 -0.36682,0.0774 -0.34096,0.0754 -1.03695,0.12483 -1.72405,0.12233 -0.46686,-0.001 -0.85893,-0.0578 -1.45072,-0.20748 -0.45023,-0.11391 -0.62792,-0.2273 -0.62792,-0.40071 0,-0.10814 -0.0342,-0.13437 -0.1425,-0.10922 -0.15706,0.0365 -0.30393,0.0243 -0.43318,-0.0358 -0.15229,-0.0709 -0.23263,-0.16424 -0.33834,-0.39304 -0.0894,-0.19343 -0.15728,-0.25813 -0.27135,-0.25852 -0.0998,-4.8e-4 -0.59643,-0.0882 -0.68156,-0.12055 -0.0375,-0.0142 -0.11756,-0.0259 -0.17795,-0.0259 -0.10663,0 -0.65294,-0.20324 -1.0279,-0.3824 -0.28028,-0.13392 -0.7286,-0.64357 -0.94529,-1.07461 -0.0343,-0.0683 -0.11725,-0.33469 -0.18422,-0.5919 -0.067,-0.25721 -0.14699,-0.51254 -0.17782,-0.56741 -0.0309,-0.0549 -0.11436,-0.14375 -0.1856,-0.19754 -0.25423,-0.19194 -0.3122,-0.41248 -0.28819,-1.09627 0.0247,-0.7034 0.10883,-1.17243 0.26367,-1.46988 0.10281,-0.19751 0.12143,-0.21792 0.37405,-0.41015 0.14623,-0.11127 0.3431,-0.25369 0.4375,-0.31651 0.0944,-0.0628 0.17999,-0.12583 0.19019,-0.14006 0.0268,-0.0373 0.0905,-0.25915 0.11395,-0.39683 0.11263,-0.66085 0.22113,-1.03407 0.41113,-1.41422 0.19312,-0.38642 0.3022,-0.52871 0.54244,-0.70758 0.11933,-0.0889 0.29458,-0.24325 0.38945,-0.34313 0.1519,-0.1599 0.19718,-0.2321 0.3793,-0.60476 0.22878,-0.46813 0.33428,-0.60984 0.75207,-1.01028 0.43957,-0.42133 0.92003,-0.73902 1.37285,-0.90779 0.45613,-0.17001 0.72433,-0.30587 0.85334,-0.4323 0.18869,-0.18491 0.58607,-0.34774 0.91077,-0.3732 0.0958,-0.008 0.19763,-0.0183 0.22632,-0.0241 0.0637,-0.0127 0.38061,-0.25335 0.49806,-0.37816 0.16451,-0.17482 0.5459,-0.3175 0.84868,-0.3175 0.23109,0 0.35251,-0.0518 0.86161,-0.36753 0.364,-0.22575 0.34572,-0.21803 0.89428,-0.378 0.40365,-0.11772 0.52291,-0.13282 0.79461,-0.10054 0.17303,0.0205 0.18415,0.0178 0.72141,-0.17634 0.31359,-0.11334 0.63321,-0.18625 0.98317,-0.2243 0.29213,-0.0318 0.69916,-0.004 1.11929,0.0763 0.30721,0.0587 0.34845,0.0534 0.66091,-0.085 0.39081,-0.17305 1.0457,-0.28625 1.38373,-0.23917 0.15001,0.0209 0.28705,0.0145 0.79272,-0.0369 0.63159,-0.0642 0.95538,-0.0665 1.23496,-0.008 0.14629,0.0304 0.69479,0.19683 1.30046,0.39474 l 0.38342,0.12528 0.36766,-0.029 c 0.41331,-0.0326 0.52675,-0.0241 0.85855,0.0641 0.18735,0.0498 0.29859,0.0629 0.57469,0.0673 0.3911,0.006 0.48119,0.028 0.6283,0.1517 0.14678,0.12337 0.27125,0.17261 0.48438,0.19161 0.2913,0.026 0.35233,0.0499 0.53069,0.20824 0.0929,0.0824 0.21244,0.16273 0.27527,0.18484 0.0611,0.0215 0.15817,0.0556 0.21572,0.0757 0.0575,0.0201 0.16014,0.0824 0.22798,0.13827 0.22441,0.18492 0.26326,0.20543 0.49202,0.25979 0.1248,0.0297 0.32045,0.0763 0.43477,0.10367 0.47741,0.11425 0.77802,0.37175 0.93038,0.79695 0.0304,0.0847 0.0762,0.16521 0.10188,0.17895 0.0319,0.0171 0.0996,0.0168 0.21393,-7e-4 0.15923,-0.0247 0.32418,-0.011 0.4534,0.0377 0.11216,0.0423 0.80382,0.53879 1.02967,0.73922 0.58842,0.52215 0.87294,0.93325 0.95493,1.37979 0.0209,0.11363 0.045,0.21695 0.0538,0.22958 0.009,0.0126 0.0824,0.0737 0.16376,0.13565 0.0814,0.0619 0.25885,0.23203 0.3944,0.3779 0.18626,0.20044 0.26522,0.30664 0.32329,0.43472 0.0423,0.0932 0.10521,0.20671 0.1399,0.25219 0.18659,0.24463 0.51762,1.10221 0.5688,1.47355 0.0139,0.10087 0.0411,0.22836 0.0605,0.2833 0.0194,0.0549 0.0479,0.18149 0.0633,0.28123 0.0484,0.31332 0.0977,0.46032 0.26098,0.77779 0.16902,0.32869 0.19294,0.41456 0.30066,1.07922 0.0272,0.16843 0.0841,0.41603 0.12635,0.55024 0.0976,0.31037 0.11195,0.51299 0.0624,0.8808 -0.0661,0.49076 -0.066,0.49211 0.10206,0.88445 0.22882,0.53428 0.24871,0.74138 0.1114,1.15994 -0.0588,0.17928 -0.0853,0.22275 -0.21515,0.35317 -0.0814,0.0818 -0.23062,0.20328 -0.33149,0.26998 l -0.18341,0.12128 -7.1e-4,0.30469 c -7.1e-4,0.41152 -0.0654,0.5902 -0.33276,0.92362 -0.15939,0.19879 -0.1673,0.2345 -0.0944,0.42624 0.0638,0.16786 0.0614,0.24753 -0.0122,0.40559 -0.1188,0.25519 -0.52716,0.60252 -0.97142,0.82625 -0.0921,0.0464 -0.23848,0.13297 -0.32542,0.19248 -0.0869,0.0595 -0.19936,0.11477 -0.24986,0.12279 -0.33207,0.0527 -0.4042,0.073 -0.43698,0.12304 -0.0405,0.0618 -0.0879,0.22104 -0.14537,0.48823 -0.0287,0.13361 -0.09,0.28933 -0.19334,0.49117 -0.17245,0.33691 -0.25331,0.44854 -0.39211,0.54132 -0.20269,0.13548 -0.22784,0.17233 -0.32073,0.47002 -0.12109,0.38802 -0.17175,0.47714 -0.38799,0.68254 -0.43229,0.41065 -0.93001,0.67368 -2.27899,1.20442 -0.69717,0.27428 -0.94122,0.34511 -1.37868,0.40008 l -0.30694,0.0386 -0.44682,-0.0752 c -0.52183,-0.0878 -0.76105,-0.15314 -1.15038,-0.31427 -0.1561,-0.0646 -0.39925,-0.14785 -0.54033,-0.18499 -0.14108,-0.0372 -0.27577,-0.0778 -0.2993,-0.0903 -0.0334,-0.0177 -0.0427,-0.0131 -0.0423,0.0209 7.1e-4,0.0802 0.0904,0.23701 0.28995,0.5083 0.10881,0.14795 0.23704,0.33372 0.28493,0.41282 0.0479,0.0791 0.158,0.22515 0.24468,0.32453 0.26846,0.30782 0.31627,0.47589 0.19447,0.68372 -0.0338,0.0576 -0.0683,0.15767 -0.0768,0.22224 -0.0181,0.13834 -0.0636,0.23871 -0.15037,0.33139 -0.0646,0.069 -0.12102,0.0786 -0.26162,0.0444 z"
         id="path9" /><text
         xml:space="preserve"
         style="font-style:normal;font-variant:normal;font-weight:normal;font-stretch:normal;font-size:8.46667px;font-family:sans-serif;-inkscape-font-specification:'sans-serif, Normal';font-variant-ligatures:normal;font-variant-caps:normal;font-variant-numeric:normal;font-variant-east-asian:normal;text-align:center;writing-mode:lr-tb;direction:ltr;text-anchor:middle;fill:#000000;fill-opacity:1;stroke:none;stroke-width:0.730999;stroke-linejoin:round;stroke-dasharray:none;stroke-opacity:1"
         x="174.61356"
         y="159.71487"
         id="text10"><tspan
           sodipodi:role="line"
           id="tspan10"
           style="font-style:normal;font-variant:normal;font-weight:normal;font-stretch:normal;font-size:8.46667px;font-family:sans-serif;-inkscape-font-specification:'sans-serif, Normal';font-variant-ligatures:normal;font-variant-caps:normal;font-variant-numeric:normal;font-variant-east-asian:normal;fill:#000000;fill-opacity:1;stroke:none;stroke-width:0.731"
           x="174.61356"
           y="159.71487">LLM</tspan></text></g><path
       style="fill:none;fill-opacity:1;stroke:#000000;stroke-width:2.353;stroke-linejoin:round;stroke-dasharray:none;stroke-opacity:1;marker-start:url(#marker31);marker-end:url(#Triangle)"
       d="m 578.67067,243.08755 -14.52409,0"
       id="path21"
       sodipodi:nodetypes="cc" /><path
       style="fill:none;fill-opacity:1;stroke:#000000;stroke-width:2.353;stroke-linejoin:round;stroke-dasharray:none;stroke-opacity:1;marker-start:url(#marker31);marker-end:url(#Triangle-4)"
       d="m 503.42172,137.25948 -29.81262,0"
       id="path21-4"
       sodipodi:nodetypes="cc" /><path
       style="fill:none;fill-opacity:1;stroke:#000000;stroke-width:2.353;stroke-linejoin:round;stroke-dasharray:none;stroke-opacity:1;marker-end:url(#marker26)"
       d="m 299.65509,136.06787 c -17.5818,0 -35.16361,0 -43.95451,10.82959 -8.7909,10.82959 -8.7909,32.4879 -8.7909,54.93085 0,22.44295 0,45.66871 -5.86072,57.28229 -5.86072,11.61358 -17.58169,11.61358 -29.30289,11.61358"
       id="path25"
       inkscape:path-effect="#path-effect26"
       inkscape:original-d="m 299.65509,136.06787 c -17.5818,0 -35.16361,0 -52.74541,0 0,21.65918 0,43.31749 0,64.97623 0,23.22716 0,46.45292 0,69.68008 -11.72144,0 -23.44241,0 -35.16361,0"
       sodipodi:nodetypes="ccscc" /><path
       style="fill:none;fill-opacity:1;stroke:#000000;stroke-width:1;stroke-linejoin:round;stroke-dasharray:none;stroke-opacity:1;marker-end:url(#marker28)"
       d="m 121.1562,137.53807 v 17.5818"
       id="path27" /><path
       style="fill:none;fill-opacity:1;stroke:#000000;stroke-width:1;stroke-linejoin:round;stroke-dasharray:none;stroke-opacity:1;marker-end:url(#marker28-7)"
       d="M 121.1562,228.07083 V 241.8305"
       id="path27-8"
       sodipodi:nodetypes="cc" /><path
       style="fill:none;fill-opacity:1;stroke:#000000;stroke-width:1;stroke-linejoin:round;stroke-dasharray:none;stroke-opacity:1;marker-end:url(#marker28-3)"
       d="m 121.1562,295.53957 v 17.5818"
       id="path27-9" /><path
       style="fill:none;fill-opacity:1;stroke:#000000;stroke-width:1;stroke-linejoin:round;stroke-dasharray:none;stroke-opacity:1;marker-start:url(#marker31);marker-end:url(#marker28-6)"
       d="m 386.67487,167.50857 0,126.89476"
       id="path27-6"
       sodipodi:nodetypes="cc" /><path
       style="fill:none;fill-opacity:1;stroke:#000000;stroke-width:2.353;stroke-linejoin:round;stroke-dasharray:none;stroke-opacity:1;marker-end:url(#marker28)"
       d="m 152.12082,357.75148 c 34.14438,0 68.28875,0 85.36094,-9.28138 17.07218,-9.28137 17.07218,-27.84302 17.07218,-47.63053 0,-19.78752 0,-40.79853 3.31258,-51.30464 3.31257,-10.50611 9.93748,-10.50611 16.5625,-10.50611"
       id="path29"
       inkscape:path-effect="#path-effect29"
       inkscape:original-d="m 152.12082,357.75148 c 34.14438,0 68.28875,0 102.43312,0 0,-18.56275 0,-37.1244 0,-55.68717 0,-21.01226 0,-42.02327 0,-63.03549 6.62515,0 13.25006,0 19.87508,0"
       sodipodi:nodetypes="ccscc" /><path
       style="fill:none;fill-opacity:1;stroke:#000000;stroke-width:1;stroke-linejoin:round;stroke-dasharray:none;stroke-opacity:1;marker-end:url(#marker28)"
       d="m 321.05901,261.43378 c 0.2549,20.13635 0.50967,40.263 3.45967,50.32633 2.95,10.06334 8.595,10.06334 14.24011,10.06334"
       id="path30"
       inkscape:path-effect="#path-effect30"
       inkscape:original-d="m 321.05901,261.43378 c 0.76444,20.1299 0.76444,40.25977 0.76444,60.38967 5.64523,0 11.29023,0 16.93534,0"
       sodipodi:nodetypes="ccc" /></g></svg>
