<?xml version="1.0" encoding="UTF-8" standalone="no"?>
<!-- Created with Inkscape (http://www.inkscape.org/) -->

<svg
   width="230mm"
   height="430mm"
   viewBox="0 0 230 430"
   version="1.1"
   id="svg1"
   inkscape:version="1.4 (1:1.4+202410161351+e7c3feb100)"
   sodipodi:docname="esquema_paper.svg"
   xml:space="preserve"
   inkscape:export-filename="../Paper/general_design.pdf"
   inkscape:export-xdpi="300"
   inkscape:export-ydpi="300"
   xmlns:inkscape="http://www.inkscape.org/namespaces/inkscape"
   xmlns:sodipodi="http://sodipodi.sourceforge.net/DTD/sodipodi-0.dtd"
   xmlns="http://www.w3.org/2000/svg"
   xmlns:svg="http://www.w3.org/2000/svg"><sodipodi:namedview
     id="namedview1"
     pagecolor="#ffffff"
     bordercolor="#000000"
     borderopacity="0.25"
     inkscape:showpageshadow="2"
     inkscape:pageopacity="0.0"
     inkscape:pagecheckerboard="0"
     inkscape:deskcolor="#d1d1d1"
     inkscape:document-units="mm"
     inkscape:zoom="0.52075561"
     inkscape:cx="215.07209"
     inkscape:cy="779.63634"
     inkscape:window-width="1920"
     inkscape:window-height="1008"
     inkscape:window-x="0"
     inkscape:window-y="0"
     inkscape:window-maximized="1"
     inkscape:current-layer="layer1"
     showgrid="false" /><defs
     id="defs1"><inkscape:path-effect
       effect="fillet_chamfer"
       id="path-effect42"
       is_visible="true"
       lpeversion="1"
       nodesatellites_param="F,0,0,1,0,0,0,1 @ F,0,1,1,0,3.6232044,0,1 @ F,0,0,1,0,3.6232044,0,1 @ F,0,0,1,0,0,0,1"
       radius="0"
       unit="px"
       method="auto"
       mode="F"
       chamfer_steps="1"
       flexible="false"
       use_knot_distance="true"
       apply_no_radius="true"
       apply_with_radius="true"
       only_selected="false"
       hide_knots="false" /><inkscape:path-effect
       effect="fillet_chamfer"
       id="path-effect41"
       is_visible="true"
       lpeversion="1"
       nodesatellites_param="F,0,0,1,0,0,0,1 @ F,0,1,1,0,6.0366358,0,1 @ F,0,1,1,0,6.0366358,0,1 @ F,0,0,1,0,0,0,1"
       radius="0"
       unit="px"
       method="auto"
       mode="F"
       chamfer_steps="1"
       flexible="false"
       use_knot_distance="true"
       apply_no_radius="true"
       apply_with_radius="true"
       only_selected="false"
       hide_knots="false" /><inkscape:path-effect
       effect="fillet_chamfer"
       id="path-effect40"
       is_visible="true"
       lpeversion="1"
       nodesatellites_param="F,0,0,1,0,0,0,1 @ F,0,0,1,0,0,0,1 @ F,0,0,1,0,0,0,1 @ F,0,0,1,0,0,0,1"
       radius="0"
       unit="px"
       method="auto"
       mode="F"
       chamfer_steps="1"
       flexible="false"
       use_knot_distance="true"
       apply_no_radius="true"
       apply_with_radius="true"
       only_selected="false"
       hide_knots="false" /><inkscape:path-effect
       effect="fillet_chamfer"
       id="path-effect7"
       is_visible="true"
       lpeversion="1"
       nodesatellites_param="F,0,0,1,0,0,0,1 @ F,0,0,1,0,7.0962066,0,1 @ F,0,0,1,0,0,0,1"
       radius="0"
       unit="px"
       method="auto"
       mode="F"
       chamfer_steps="1"
       flexible="false"
       use_knot_distance="true"
       apply_no_radius="true"
       apply_with_radius="true"
       only_selected="false"
       hide_knots="false" /><inkscape:path-effect
       effect="fillet_chamfer"
       id="path-effect6"
       is_visible="true"
       lpeversion="1"
       nodesatellites_param="F,0,0,1,0,0,0,1 @ F,0,1,1,0,13.87872,0,1 @ F,0,0,1,0,13.87872,0,1 @ F,0,0,1,0,0,0,1"
       radius="0"
       unit="px"
       method="auto"
       mode="F"
       chamfer_steps="1"
       flexible="false"
       use_knot_distance="true"
       apply_no_radius="true"
       apply_with_radius="true"
       only_selected="false"
       hide_knots="false" /><inkscape:path-effect
       effect="fillet_chamfer"
       id="path-effect5"
       is_visible="true"
       lpeversion="1"
       nodesatellites_param="F,0,0,1,0,0,0,1 @ F,0,1,1,0,22.075941,0,1 @ F,0,0,1,0,22.075941,0,1 @ F,0,0,1,0,0,0,1"
       radius="0"
       unit="px"
       method="auto"
       mode="F"
       chamfer_steps="1"
       flexible="false"
       use_knot_distance="true"
       apply_no_radius="true"
       apply_with_radius="true"
       only_selected="false"
       hide_knots="false" /><inkscape:path-effect
       effect="bspline"
       id="path-effect30"
       is_visible="true"
       lpeversion="1.3"
       weight="33.333333"
       steps="2"
       helper_size="0"
       apply_no_weight="true"
       apply_with_weight="true"
       only_selected="false"
       uniform="false" /><inkscape:path-effect
       effect="bspline"
       id="path-effect29"
       is_visible="true"
       lpeversion="1.3"
       weight="33.333333"
       steps="2"
       helper_size="0"
       apply_no_weight="true"
       apply_with_weight="true"
       only_selected="false"
       uniform="false" /><marker
       style="overflow:visible"
       id="marker28"
       refX="0"
       refY="0"
       orient="auto-start-reverse"
       inkscape:stockid="Triangle arrow"
       markerWidth="0.5"
       markerHeight="0.5"
       viewBox="0 0 1 1"
       inkscape:isstock="true"
       inkscape:collect="always"
       preserveAspectRatio="xMidYMid"><path
         transform="scale(0.5)"
         style="fill:context-stroke;fill-rule:evenodd;stroke:context-stroke;stroke-width:1pt"
         d="M 5.77,0 -2.88,5 V -5 Z"
         id="path28" /></marker><inkscape:path-effect
       effect="bspline"
       id="path-effect26"
       is_visible="true"
       lpeversion="1.3"
       weight="33.333333"
       steps="2"
       helper_size="0"
       apply_no_weight="true"
       apply_with_weight="true"
       only_selected="false"
       uniform="false" /><inkscape:path-effect
       effect="bspline"
       id="path-effect25"
       is_visible="true"
       lpeversion="1.3"
       weight="33.333333"
       steps="2"
       helper_size="0"
       apply_no_weight="true"
       apply_with_weight="true"
       only_selected="false"
       uniform="false" /><inkscape:path-effect
       effect="bspline"
       id="path-effect24"
       is_visible="true"
       lpeversion="1.3"
       weight="33.333333"
       steps="2"
       helper_size="0"
       apply_no_weight="true"
       apply_with_weight="true"
       only_selected="false"
       uniform="false" /><inkscape:path-effect
       effect="bspline"
       id="path-effect23"
       is_visible="true"
       lpeversion="1.3"
       weight="33.333333"
       steps="2"
       helper_size="0"
       apply_no_weight="true"
       apply_with_weight="true"
       only_selected="false"
       uniform="false" /><inkscape:path-effect
       effect="bspline"
       id="path-effect22"
       is_visible="true"
       lpeversion="1.3"
       weight="33.333333"
       steps="2"
       helper_size="0"
       apply_no_weight="true"
       apply_with_weight="true"
       only_selected="false"
       uniform="false" /><marker
       style="overflow:visible"
       id="marker28-3"
       refX="0"
       refY="0"
       orient="auto-start-reverse"
       inkscape:stockid="Triangle arrow"
       markerWidth="0.5"
       markerHeight="0.5"
       viewBox="0 0 1 1"
       inkscape:isstock="true"
       inkscape:collect="always"
       preserveAspectRatio="xMidYMid"><path
         transform="scale(0.5)"
         style="fill:context-stroke;fill-rule:evenodd;stroke:context-stroke;stroke-width:1pt"
         d="M 5.77,0 -2.88,5 V -5 Z"
         id="path28-7" /></marker><marker
       style="overflow:visible"
       id="marker28-36"
       refX="0"
       refY="0"
       orient="auto-start-reverse"
       inkscape:stockid="Triangle arrow"
       markerWidth="0.5"
       markerHeight="0.5"
       viewBox="0 0 1 1"
       inkscape:isstock="true"
       inkscape:collect="always"
       preserveAspectRatio="xMidYMid"><path
         transform="scale(0.5)"
         style="fill:context-stroke;fill-rule:evenodd;stroke:context-stroke;stroke-width:1pt"
         d="M 5.77,0 -2.88,5 V -5 Z"
         id="path28-5" /></marker></defs><g
     inkscape:label="Capa 1"
     inkscape:groupmode="layer"
     id="layer1"><path
       style="fill:none;fill-opacity:1;stroke:#000000;stroke-width:0.735296;stroke-dasharray:none;stroke-opacity:1"
       d="m 111.43965,230.83473 c -4.37916,-0.39866 -6.14912,-0.68625 -8.9104,-1.44774 -4.463727,-1.23099 -7.425747,-3.06541 -8.359152,-5.17689 l -0.290678,-0.65755 -0.02999,-5.42413 c -0.02205,-3.98818 0.002,-5.46694 0.09092,-5.58594 0.165379,-0.22138 0.682804,-0.20692 0.761634,0.0212 0.0348,0.10069 0.0633,2.51298 0.0633,5.3606 v 5.17751 l 0.26746,0.59623 c 1.22477,2.73034 6.673036,4.9862 14.218426,5.88715 2.36568,0.28248 7.82899,0.34186 10.3694,0.11269 8.12482,-0.73289 14.21444,-3.08689 15.52113,-5.99982 l 0.26746,-0.59625 v -5.17749 c 0,-2.84763 0.0284,-5.25991 0.0634,-5.36062 0.0788,-0.22821 0.59623,-0.24268 0.76161,-0.0215 0.0889,0.11891 0.1129,1.59776 0.0909,5.58597 l -0.0301,5.4241 -0.29075,0.65772 c -1.36754,3.09357 -6.94427,5.48476 -14.97675,6.42171 -1.41403,0.16492 -8.38417,0.31233 -9.58779,0.20277 z m 7.24296,-0.28128 c 6.55692,-0.43212 12.30863,-2.0451 15.2675,-4.28151 0.76686,-0.5796 1.62703,-1.60996 1.90775,-2.28516 0.22503,-0.54127 0.22866,-0.63556 0.22866,-5.93336 0,-5.30618 -0.004,-5.38336 -0.20843,-5.38336 -0.2047,0 -0.20936,0.0964 -0.26053,5.38336 -0.0506,5.2325 -0.0584,5.39632 -0.27636,5.84645 -1.44757,2.98922 -7.6763,5.38594 -15.79063,6.07599 -2.99722,0.25487 -8.21901,0.14512 -11.18526,-0.23534 -7.00185,-0.8978 -12.225417,-3.15249 -13.531407,-5.84065 -0.21893,-0.45065 -0.22638,-0.60779 -0.27708,-5.84645 -0.0512,-5.28687 -0.0558,-5.38336 -0.26054,-5.38336 -0.205446,0 -0.208432,0.0771 -0.208432,5.38336 0,5.28671 0.004,5.39314 0.227112,5.92946 1.15255,2.77143 6.166967,5.11531 13.164507,6.15344 1.08201,0.16047 3.16271,0.37195 4.53336,0.46067 1.33192,0.0863 5.0714,0.0618 6.66978,-0.0435 z m -6.92584,-13.4271 c -5.37295,-0.35511 -9.8576,-1.34085 -13.189401,-2.89903 -2.298696,-1.07501 -3.695916,-2.26516 -4.410617,-3.75689 l -0.277332,-0.57885 -0.03103,-5.32452 c -0.01712,-2.9285 -0.0053,-5.43871 0.02629,-5.57825 0.07038,-0.31158 0.393333,-0.44084 0.678193,-0.27149 0.20868,0.12424 0.2125,0.21695 0.22029,5.36081 0.006,3.70026 0.0438,5.34262 0.13026,5.6032 0.64045,1.92974 3.519436,3.73683 7.914717,4.96791 9.27732,2.59845 22.64618,1.76842 29.20395,-1.81323 1.7742,-0.96901 2.87968,-2.04247 3.24881,-3.15468 0.0865,-0.26058 0.12455,-1.90294 0.1302,-5.6032 0.007,-5.14386 0.0109,-5.23673 0.2203,-5.36081 0.28485,-0.16939 0.6078,-0.0401 0.67818,0.27149 0.0315,0.13964 0.0433,2.64975 0.0262,5.57825 l -0.031,5.32452 -0.29312,0.61824 c -1.54929,3.26782 -7.59772,5.71291 -16.06865,6.49573 -1.81886,0.16816 -6.43012,0.23623 -8.1764,0.12068 z m 7.75955,-0.35628 c 8.3493,-0.64646 14.94301,-3.2515 16.28505,-6.43389 l 0.28515,-0.67615 0.0309,-5.24907 c 0.0317,-5.34232 0.0109,-5.6531 -0.35128,-5.49836 -0.12565,0.0535 -0.14877,0.86256 -0.14932,5.23176 -3.4e-4,3.18405 -0.0417,5.33296 -0.1078,5.5971 -0.27132,1.08524 -1.51997,2.31381 -3.38286,3.3285 -2.86001,1.55778 -6.99044,2.63894 -12.03683,3.15066 -2.22088,0.22521 -8.33103,0.19045 -10.52573,-0.0597 -7.63762,-0.87101 -12.905887,-2.9373 -14.565077,-5.71264 l -0.3898,-0.652 -0.0301,-5.38946 c -0.0305,-5.47754 -0.0521,-5.7641 -0.409367,-5.43472 -0.174393,0.16088 -0.194037,9.72768 -0.02181,10.61978 0.157827,0.81744 0.799957,1.85675 1.573467,2.54661 0.75918,0.67712 2.952636,1.92465 4.273246,2.43039 5.039191,1.92989 12.362101,2.75561 19.521901,2.20127 z m -7.92034,-13.37652 c -5.68326,-0.40414 -10.50736,-1.54088 -13.666737,-3.22036 -1.45141,-0.77158 -2.21529,-1.3463 -2.98616,-2.24669 -0.983207,-1.14843 -1.296049,-2.27912 -0.972587,-3.51516 0.915607,-3.49884 6.997614,-6.21934 15.853824,-7.09145 2.32769,-0.22923 8.14557,-0.23461 10.42151,-0.0104 5.32016,0.52587 9.40533,1.60432 12.40073,3.27369 1.20231,0.67005 1.73437,1.07817 2.47956,1.90184 0.81882,0.90508 1.1666,1.74678 1.16467,2.81864 -0.002,1.04574 -0.26289,1.6916 -1.05951,2.62208 -2.22641,2.60053 -7.10508,4.40393 -14.22281,5.25747 -1.42787,0.17121 -7.91922,0.31577 -9.41249,0.20958 z m 9.17092,-0.44433 c 7.9504,-0.87044 13.85314,-3.37582 15.08812,-6.40405 0.65201,-1.59877 -0.0736,-3.45831 -1.87362,-4.80216 -2.94045,-2.19521 -7.68092,-3.61535 -14.25665,-4.27097 -1.83276,-0.18274 -7.82183,-0.17971 -9.43147,0.004 -3.37896,0.38736 -5.33004,0.72737 -7.39927,1.28953 -5.689207,1.54558 -8.806877,3.86239 -8.797978,6.53798 0.0033,1.00208 0.319951,1.67233 1.285171,2.72063 2.47892,2.69222 8.515407,4.56458 16.579517,5.14253 1.36715,0.0979 7.24895,-0.048 8.80618,-0.21838 z m -10.68204,-0.47025 c -5.51666,-0.54035 -10.01199,-1.78714 -12.784347,-3.54579 -1.59418,-1.01127 -2.74007,-2.50917 -2.74268,-3.58524 -0.0111,-4.5837 11.545757,-8.17336 23.812127,-7.39626 7.51603,0.47616 13.4998,2.29552 16.04341,4.87801 1.57332,1.59737 1.59738,3.13437 0.0745,4.76122 -2.37452,2.53662 -7.79617,4.31748 -15.06484,4.94834 -1.82356,0.15823 -7.47969,0.12173 -9.33818,-0.0601 z m 9.11882,-0.17343 c 7.26405,-0.58718 13.14017,-2.53158 15.26661,-5.05174 0.72203,-0.85569 0.99346,-1.54632 0.89485,-2.27675 -0.39336,-2.91398 -6.0931,-5.5576 -14.12927,-6.5533 -5.30958,-0.65784 -11.8498,-0.36518 -16.71573,0.74798 -6.660617,1.52376 -10.467845,4.24516 -9.598807,6.86119 0.24123,0.72612 1.4295,2.00937 2.46288,2.65968 2.865627,1.80338 7.639437,3.09364 13.325927,3.6018 1.58663,0.14186 6.79279,0.1487 8.49354,0.0119 z"
       id="path1"
       sodipodi:nodetypes="ssscsssscsssscscsscsssssssssssssssssssssssscsssssssssscccsssssscsssssssscsssssssssssssscssscssscssssccsssssssscsssssssccsscs" /><text
       xml:space="preserve"
       style="font-style:normal;font-variant:normal;font-weight:bold;font-stretch:normal;font-size:14.1111px;font-family:'CMU Serif';-inkscape-font-specification:'CMU Serif, Bold';font-variant-ligatures:normal;font-variant-caps:normal;font-variant-numeric:normal;font-variant-east-asian:normal;text-align:center;writing-mode:lr-tb;direction:ltr;text-anchor:middle;fill:#000000;fill-opacity:1;stroke:none;stroke-width:2.3529;stroke-linejoin:round;stroke-dasharray:none;stroke-opacity:1"
       x="114.98277"
       y="15.981332"
       id="text2-6-8-4"><tspan
         sodipodi:role="line"
         id="tspan1"
         x="114.98277"
         y="15.981332">Information extractor</tspan></text><text
       xml:space="preserve"
       style="font-style:normal;font-variant:normal;font-weight:bold;font-stretch:normal;font-size:14.1111px;font-family:'CMU Serif';-inkscape-font-specification:'CMU Serif, Bold';font-variant-ligatures:normal;font-variant-caps:normal;font-variant-numeric:normal;font-variant-east-asian:normal;text-align:center;writing-mode:lr-tb;direction:ltr;text-anchor:middle;fill:#000000;fill-opacity:1;stroke:none;stroke-width:2.3529;stroke-linejoin:round;stroke-dasharray:none;stroke-opacity:1"
       x="115.01053"
       y="258.65475"
       id="text2-6-8-4-5"><tspan
         sodipodi:role="line"
         id="tspan23"
         x="115.01053"
         y="258.65475">Language controller</tspan></text><rect
       style="fill:none;fill-opacity:1;stroke:#000000;stroke-width:1;stroke-linejoin:round;stroke-dasharray:3, 3;stroke-dashoffset:0;stroke-opacity:1"
       id="rect6"
       width="189.32019"
       height="217.55284"
       x="20.426987"
       y="20.53101"
       ry="10.542733" /><rect
       style="fill:none;fill-opacity:1;stroke:#000000;stroke-width:1;stroke-linejoin:round;stroke-dasharray:3, 3;stroke-dashoffset:0;stroke-opacity:1"
       id="rect6-7"
       width="189.32019"
       height="70.971214"
       x="20.426985"
       y="263.82358"
       ry="10.542672" /><text
       xml:space="preserve"
       style="font-style:normal;font-variant:normal;font-weight:bold;font-stretch:normal;font-size:14.1111px;font-family:'CMU Serif';-inkscape-font-specification:'CMU Serif, Bold';font-variant-ligatures:normal;font-variant-caps:normal;font-variant-numeric:normal;font-variant-east-asian:normal;text-align:center;writing-mode:lr-tb;direction:ltr;text-anchor:middle;fill:#000000;fill-opacity:1;stroke:none;stroke-width:2.3529;stroke-linejoin:round;stroke-dasharray:none;stroke-opacity:1"
       x="113.19123"
       y="371.51028"
       id="text2-6-8-4-5-0"><tspan
         sodipodi:role="line"
         id="tspan39"
         x="113.19123"
         y="371.51028">API</tspan></text><rect
       style="fill:none;fill-opacity:1;stroke:#000000;stroke-width:1;stroke-linejoin:round;stroke-dasharray:3, 3;stroke-dashoffset:0;stroke-opacity:1"
       id="rect6-7-8"
       width="189.32019"
       height="24.584999"
       x="18.783329"
       y="353.92459"
       ry="10.542672" /><path
       style="fill:none;fill-opacity:1;stroke:#000000;stroke-width:2;stroke-linejoin:round;stroke-dasharray:none;stroke-opacity:1;marker-end:url(#marker28)"
       d="M 115.08708,73.82013 V 84.52271"
       id="path27"
       sodipodi:nodetypes="cc" /><path
       style="fill:none;fill-opacity:1;stroke:#000000;stroke-width:2;stroke-linejoin:round;stroke-dasharray:none;stroke-opacity:1;marker-start:url(#marker28);marker-end:url(#marker28-36)"
       d="m 118.48809,300.24948 h 13.87757"
       id="path27-3"
       sodipodi:nodetypes="cc" /><path
       style="fill:none;fill-opacity:1;stroke:#000000;stroke-width:2;stroke-linejoin:round;stroke-dasharray:none;stroke-opacity:1;marker-end:url(#marker28-3)"
       d="m 115.08708,170.8554 v 10.70264"
       id="path27-5"
       sodipodi:nodetypes="cc" /><g
       id="g23"
       transform="translate(-6.0827183,-22.225008)"><path
         style="fill:#b91e0e;fill-opacity:1;stroke-width:0.0798616"
         d="m 113.62623,75.660632 c -0.12985,-0.126608 -0.31022,-0.360492 -0.41119,-0.532642 -0.20014,-0.340913 -0.27704,-0.650512 -0.22855,-0.919053 0.0251,-0.138901 0.0389,-0.169463 0.14406,-0.317195 0.0992,-0.139605 0.13985,-0.179025 0.27321,-0.271183 0.28632,-0.196699 0.64348,-0.325654 1.14421,-0.41275 0.3702,-0.06439 0.69447,-0.08194 1.25018,-0.06774 1.45362,0.0372 2.99869,0.17644 4.69919,0.423554 l 0.38626,0.05611 0.26006,-0.16039 c 1.8351,-1.131806 3.82852,-2.65664 6.32965,-4.841698 0.55043,-0.480886 0.8562,-0.765977 1.27291,-1.187004 l 0.32564,-0.328983 0.10928,-0.475882 c 0.15992,-0.695882 0.21722,-0.902734 0.33481,-1.208382 0.3177,-0.82576 0.68053,-1.572104 1.07625,-2.214148 0.45068,-0.731599 0.89515,-1.189112 1.45659,-1.499836 0.4626,-0.256167 0.80014,-0.238208 1.34437,0.07142 0.28436,0.161671 0.49703,0.44521 0.54193,0.722554 0.0565,0.348529 -0.0403,0.73246 -0.3306,1.312255 -0.10891,0.217215 -0.67052,1.038366 -0.93364,1.363562 -0.45352,0.562643 -0.93381,1.105115 -1.65261,1.867899 -0.22148,0.234996 -0.42946,0.455553 -0.46206,0.490295 -0.0685,0.07312 -0.0679,0.07122 -0.18702,1.016358 -0.29071,2.314887 -0.52019,5.108295 -0.4944,6.018572 0.025,0.881172 0.0761,1.518388 0.12323,1.534539 0.0956,0.03215 0.5595,0.246123 0.79202,0.364009 0.59258,0.30089 1.14379,0.681586 1.54192,1.066052 0.0785,0.07617 0.20551,0.194846 0.28214,0.264448 0.39541,0.361201 0.5295,0.838781 0.36262,1.292519 -0.0538,0.145685 -0.21867,0.378493 -0.34356,0.485433 -0.3561,0.303004 -0.7464,0.371671 -1.51603,0.267323 -1.08483,-0.147149 -1.85613,-1.097096 -2.34338,-2.885629 l -0.0271,-0.09956 -0.33168,-0.124892 c -2.00122,-0.752918 -4.38702,-1.422686 -6.72946,-1.889188 l -0.42454,-0.08442 -0.26279,0.128949 c -1.0763,0.525847 -2.54874,1.094349 -3.425,1.322318 -0.32729,0.08512 -1.01956,0.190834 -1.36393,0.208205 -0.70593,0.03558 -1.29187,-0.04661 -1.79955,-0.252534 -0.19515,-0.07903 -0.64648,-0.368528 -0.78342,-0.502221 z m 1.32219,-0.455139 c 0.82511,0.384114 1.99254,0.274362 3.56552,-0.335023 0.26077,-0.101048 0.8903,-0.417903 0.86523,-0.435547 -0.0165,-0.01155 -1.19655,-0.202686 -1.40045,-0.227213 -0.0981,-0.0119 -0.28373,-0.02922 -0.41198,-0.03847 -0.12826,-0.0092 -0.40862,-0.03226 -0.62282,-0.05085 -1.23691,-0.107742 -1.81187,-4.92e-4 -2.18306,0.407187 -0.0919,0.101008 -0.23013,0.352286 -0.23504,0.425071 -0.002,0.03338 0.172,0.138382 0.42258,0.254599 z m 8.2006,-1.158436 c 1.16639,0.244301 2.25555,0.514649 3.40126,0.844274 0.53395,0.153595 0.73565,0.220411 1.46605,0.486323 0.23758,0.08643 0.446,0.158671 0.46339,0.160385 0.023,0.0022 0.0222,-0.06633 0.001,-0.235448 -0.20746,-1.645412 -0.1697,-3.714758 0.10208,-5.592103 0.029,-0.199161 0.0312,-0.271119 0.008,-0.252687 -0.0178,0.01551 -0.16844,0.151287 -0.33439,0.304354 -1.53971,1.418104 -3.21083,2.732994 -4.63778,3.649263 -0.3279,0.210462 -0.65501,0.412821 -0.78421,0.484859 -0.0562,0.02966 -0.0963,0.05833 -0.0916,0.0617 0.005,0.0035 0.18752,0.04354 0.40635,0.08914 z m 7.84062,4.546326 c 0.15253,-0.215276 0.0969,-0.438274 -0.17398,-0.694431 -0.11526,-0.10903 -0.43218,-0.32122 -0.50948,-0.340535 -0.0401,-0.01074 0.0562,0.243937 0.20272,0.533382 0.0967,0.190787 0.37162,0.611981 0.39723,0.60826 0.004,-9.55e-4 0.0419,-0.04935 0.083,-0.107665 z m 0.30763,-14.011079 c 0.27906,-0.142439 0.66406,-0.51593 1.04511,-1.013793 0.21771,-0.28487 0.26711,-0.390482 0.2766,-0.59985 0.01,-0.212513 -0.0832,-0.342445 -0.2274,-0.317354 -0.15245,0.02663 -0.24199,0.119163 -0.577,0.597795 -0.32379,0.462457 -0.42966,0.651242 -0.61038,1.094777 -0.0495,0.121317 -0.0987,0.241193 -0.10888,0.266607 -0.0165,0.04341 -0.0146,0.04579 0.0313,0.03947 0.0277,-0.0053 0.10446,-0.03407 0.17109,-0.06813 z"
         id="path1-3-8"
         sodipodi:nodetypes="sssssssscssscsssssssssssssssssssscsscsssssssssssssssssscsscssssssssssssssscssss" /><path
         style="fill:#ffffff;fill-opacity:1;fill-rule:evenodd;stroke:none;stroke-width:1;stroke-linecap:round;stroke-linejoin:bevel"
         d="m 100.27598,56.448578 15.83889,-1.081815 9.045,7.766881 1.41468,25.602967 -24.80068,1.303726 z"
         id="path6"
         sodipodi:nodetypes="cccccc" /><path
         style="fill:#b91e0e;fill-opacity:1;stroke-width:0.0798616"
         d="m 106.81117,85.843311 c -0.18121,0.0072 -0.47505,-0.02269 -0.66947,-0.06777 -0.38514,-0.08914 -0.66279,-0.246222 -0.82441,-0.466094 -0.0836,-0.113725 -0.0963,-0.144758 -0.13121,-0.322727 -0.0331,-0.16806 -0.0338,-0.224644 -0.009,-0.384836 0.0541,-0.343141 0.20609,-0.691117 0.48721,-1.114546 0.20784,-0.313048 0.41809,-0.560536 0.81056,-0.954216 1.02665,-1.029748 2.19027,-2.055717 3.5391,-3.120349 l 0.30636,-0.241839 0.0624,-0.299105 c 0.44029,-2.11062 0.70412,-4.606468 0.83777,-7.92494 0.0294,-0.730313 0.0327,-1.148359 0.0136,-1.740426 l -0.0149,-0.462657 -0.27034,-0.406598 c -0.39524,-0.594651 -0.50601,-0.778502 -0.64704,-1.07407 -0.38103,-0.798513 -0.67336,-1.575186 -0.86735,-2.304009 -0.22121,-0.830313 -0.24771,-1.467625 -0.0872,-2.088912 0.13215,-0.512014 0.37731,-0.744717 0.97636,-0.926901 0.31293,-0.09527 0.66503,-0.05468 0.89726,0.103449 0.2919,0.198649 0.50408,0.532938 0.72535,1.142443 0.0828,0.228448 0.29274,1.20088 0.34789,1.615539 0.0966,0.716179 0.16014,1.437928 0.21961,2.484339 0.0183,0.322398 0.0354,0.625066 0.0382,0.672629 0.006,0.09999 0.005,0.09829 0.60927,0.834714 1.48069,1.802991 3.3509,3.890598 4.0295,4.497864 0.65691,0.587841 1.15471,0.988909 1.19882,0.965828 0.0891,-0.04731 0.56345,-0.236941 0.80894,-0.324684 0.62596,-0.223295 1.28141,-0.361674 1.83432,-0.386319 0.10927,-0.0046 0.28279,-0.01521 0.38602,-0.02298 0.53415,-0.03867 0.97309,0.192404 1.18774,0.625595 0.0688,0.139213 0.12441,0.419041 0.11616,0.583255 -0.0249,0.466897 -0.24346,0.797484 -0.84848,1.284472 -0.85286,0.686396 -2.07294,0.59309 -3.7065,-0.283123 l -0.0909,-0.04881 -0.31877,0.154917 c -1.92284,0.93511 -4.04979,2.206613 -5.99935,3.586419 l -0.35324,0.250168 -0.0871,0.279461 c -0.3584,1.14302 -0.95825,2.602967 -1.39534,3.395905 -0.16328,0.296152 -0.5626,0.871441 -0.78681,1.1334 -0.45963,0.536978 -0.92225,0.905852 -1.42088,1.132815 -0.19158,0.08733 -0.71213,0.21591 -0.90336,0.223386 z m 0.57883,-1.27291 c 0.84629,-0.33488 1.56944,-1.25791 2.20875,-2.818964 0.10597,-0.258811 0.30886,-0.933755 0.27881,-0.927688 -0.0197,0.004 -0.97001,0.729314 -1.12804,0.860482 -0.0761,0.06304 -0.21633,0.185888 -0.31125,0.272642 -0.0949,0.08677 -0.30442,0.274473 -0.46522,0.417192 -0.92884,0.823912 -1.24637,1.315087 -1.20566,1.864931 0.0101,0.136217 0.0975,0.409341 0.14697,0.462955 0.0226,0.02468 0.21875,-0.02971 0.47544,-0.131704 z m 4.79846,-6.750297 c 0.97948,-0.678798 1.92476,-1.283614 2.95197,-1.888726 0.4787,-0.28202 0.66592,-0.382509 1.36126,-0.729912 0.22613,-0.113048 0.42191,-0.214684 0.43511,-0.226128 0.0174,-0.01521 -0.0329,-0.06172 -0.17007,-0.162829 -1.33724,-0.980922 -2.81362,-2.431413 -3.98968,-3.919757 -0.12466,-0.158003 -0.17537,-0.209105 -0.17787,-0.179662 -0.001,0.02361 -0.006,0.226326 -0.009,0.452073 -0.0293,2.093053 -0.2239,4.210526 -0.53999,5.876606 -0.0727,0.382791 -0.15074,0.759436 -0.18729,0.902776 -0.0171,0.06118 -0.0239,0.110059 -0.0182,0.108928 0.006,-0.0013 0.16057,-0.106195 0.34416,-0.233714 z m 8.69258,-2.565837 c -0.0514,-0.258778 -0.25157,-0.371726 -0.6238,-0.351248 -0.15842,0.0087 -0.53042,0.09287 -0.5976,0.135706 -0.0354,0.02176 0.21572,0.12698 0.52665,0.219623 0.205,0.06101 0.69986,0.151057 0.71477,0.129906 0.002,-0.0035 -0.007,-0.06437 -0.0211,-0.134285 z m -9.96052,-9.858652 c 0.0885,-0.300556 0.0821,-0.836907 -0.0173,-1.455931 -0.0571,-0.353959 -0.0998,-0.462455 -0.24528,-0.613321 -0.14742,-0.153391 -0.30585,-0.175074 -0.38678,-0.05315 -0.0855,0.128989 -0.0799,0.25763 0.0372,0.830004 0.11308,0.553097 0.17733,0.759788 0.37506,1.196004 0.054,0.119404 0.10722,0.237535 0.11868,0.262392 0.0202,0.0418 0.0232,0.0421 0.0502,0.0044 0.0152,-0.02375 0.0471,-0.09927 0.0682,-0.171068 z"
         id="path1-3"
         sodipodi:nodetypes="sssssssscssscsssssssssssssssssssscsscsssssssssssssssssscsscssssssssssssssscssss" /><path
         style="fill:#000000;fill-opacity:1;stroke-width:0.135461"
         d="m 130.8857,93.779456 c -0.18726,-0.0928 -0.59852,-0.292047 -0.91392,-0.442967 -1.40982,-0.674637 -4.68993,-2.240558 -4.98689,-2.380745 l -0.32761,-0.15466 -0.53256,0.0322 c -0.29292,0.0175 -0.87127,0.0495 -1.28522,0.0707 -0.41396,0.0212 -1.04297,0.0541 -1.39779,0.073 -0.35481,0.0188 -0.9677,0.0512 -1.36193,0.0719 -0.39425,0.0207 -1.00713,0.0529 -1.36196,0.0717 -0.35482,0.0188 -0.96769,0.051 -1.36194,0.0717 -0.39425,0.0207 -1.00712,0.0529 -1.36194,0.0717 -0.35481,0.0188 -0.96769,0.051 -1.36195,0.0717 -0.39423,0.0207 -1.00711,0.0529 -1.36194,0.0717 -0.35482,0.0188 -0.96769,0.051 -1.36194,0.0717 -0.39424,0.0207 -1.00712,0.0529 -1.36194,0.0717 -0.35481,0.0188 -0.9677,0.051 -1.36193,0.0717 -0.39425,0.0207 -1.00712,0.0529 -1.36196,0.0717 -0.35482,0.0188 -0.96769,0.051 -1.36194,0.0717 -0.39425,0.0207 -1.00712,0.0529 -1.36193,0.0717 -0.35483,0.0188 -0.96771,0.051 -1.36196,0.0715 -0.39423,0.0206 -0.99905,0.0526 -1.34402,0.0713 -0.34496,0.0186 -0.98203,0.051 -1.4157,0.0719 -0.43367,0.0209 -0.85488,0.0435 -0.93603,0.05 l -0.147524,0.0123 -0.02353,-0.452031 c -0.01359,-0.248624 -0.03908,-0.798791 -0.05814,-1.222588 -0.01908,-0.42382 -0.05085,-1.125394 -0.07072,-1.559061 -0.01961,-0.43367 -0.05234,-1.159434 -0.07234,-1.612811 -0.02013,-0.4534 -0.05234,-1.171104 -0.07166,-1.594901 -0.01935,-0.42382 -0.05192,-1.141524 -0.07221,-1.594901 -0.09276,-2.072498 -0.109802,-2.448818 -0.142743,-3.171872 -0.01935,-0.42382 -0.05179,-1.141514 -0.07221,-1.594901 -0.0806,-1.793881 -0.108573,-2.414578 -0.14269,-3.162912 -0.01961,-0.42874 -0.05192,-1.150484 -0.07195,-1.603871 -0.03406,-0.771237 -0.05004,-1.125984 -0.142664,-3.153952 -0.01987,-0.43366 -0.05234,-1.159441 -0.07234,-1.612822 -0.01987,-0.45338 -0.05221,-1.171089 -0.07153,-1.594909 -0.01935,-0.423808 -0.05179,-1.141519 -0.07221,-1.594913 -0.0806,-1.793886 -0.108573,-2.414587 -0.14269,-3.162922 -0.01961,-0.428744 -0.05192,-1.150483 -0.07195,-1.603864 -0.02013,-0.453394 -0.05221,-1.171089 -0.07153,-1.59491 -0.01935,-0.42382 -0.05166,-1.133456 -0.07195,-1.576993 -0.02013,-0.443522 -0.05299,-1.1451 -0.07289,-1.559062 -0.01987,-0.413951 -0.04625,-1.147955 -0.05856,-1.63111 l -0.02248,-0.878446 9.338701,-0.622432 9.33869,-0.622418 1.19041,1.088711 c 0.65473,0.598796 1.20114,1.092973 1.21425,1.098178 0.0186,0.0068 2.98068,-6.027254 3.3074,-6.738542 l 0.0782,-0.170246 h 0.41996 0.41997 l 0.90824,0.417047 c 0.49951,0.229382 2.35171,1.082021 4.11595,1.89479 4.28799,1.975379 9.30831,4.287916 10.40747,4.794007 0.49047,0.225852 0.90496,0.434191 0.92108,0.462993 0.0162,0.02881 0.6606,1.881807 1.43218,4.117744 0.77157,2.235948 1.71096,4.952418 2.08751,6.036599 0.55839,1.607756 0.68702,2.014189 0.69761,2.204201 l 0.0136,0.232964 -1.54705,3.243559 c -0.85087,1.783971 -2.11602,4.437046 -2.81144,5.895757 -0.69541,1.458701 -1.85664,3.894049 -2.58051,5.41189 -0.72386,1.517851 -1.96195,4.114486 -2.7513,5.770317 -0.78936,1.655821 -1.63125,3.421863 -1.87091,3.924531 l -0.4357,0.913934 -0.44589,0.007 -0.44589,0.007 z m 1.31594,-4.657193 c 0.65478,-1.374831 1.81354,-3.806079 2.57504,-5.40277 0.76151,-1.596681 2.02647,-4.249766 2.81104,-5.895747 0.78457,-1.645958 2.10599,-4.418173 2.9365,-6.160464 l 1.51002,-3.167816 -0.45323,-1.312258 c -0.24928,-0.72174 -0.58692,-1.699329 -0.75032,-2.172425 -0.40686,-1.17793 -1.67472,-4.851488 -2.05957,-5.967462 -0.40605,-1.177484 -0.4999,-1.44395 -0.51105,-1.451155 -0.005,-0.0026 -1.60581,-0.740913 -3.55734,-1.639303 -1.95151,-0.898378 -5.19927,-2.394319 -7.21725,-3.324312 -2.01797,-0.929976 -3.68221,-1.677501 -3.69831,-1.661154 -0.0262,0.02638 -2.89532,5.901976 -2.91211,5.963285 -0.004,0.01359 1.29556,1.214102 2.88733,2.66772 l 2.89414,2.642947 8.8e-4,0.148207 c -0.0301,-0.0657 0.11223,3.315121 0.32599,5.915565 0.0175,0.01542 0.0866,1.674762 0.0829,1.679292 -0.0123,0.01438 0.12643,2.479676 0.14097,2.517073 0.008,0.0199 0.39434,7.601318 0.45347,8.700272 0.25958,4.829123 0.32406,6.047157 0.39514,7.463758 0.0415,0.827924 0.0873,1.528031 0.10183,1.555821 0.0199,0.0381 2.74542,1.381151 2.83606,1.397451 0.009,0.001 0.55364,-1.121644 1.20842,-2.496475 z m -17.96782,0.23704 11.82347,-0.621587 -0.0238,-0.519967 c -0.0136,-0.28597 -0.0555,-1.108634 -0.0944,-1.828121 -0.0388,-0.719504 -0.11914,-2.215388 -0.17848,-3.324199 -0.22599,-4.225729 -0.32583,-6.091757 -0.39455,-7.374161 -0.0391,-0.729364 -0.11981,-2.237345 -0.17937,-3.351079 -0.0595,-1.113734 -0.15589,-2.912041 -0.21401,-3.996224 -0.0581,-1.08417 -0.13898,-2.632482 -0.17966,-3.440693 -0.0407,-0.808199 -0.0856,-1.538294 -0.0999,-1.622402 -0.0254,-0.148625 -0.14541,-0.261988 -4.26853,-4.026632 l -4.24255,-3.873682 -7.94325,0.528953 c -4.36878,0.290913 -7.94807,0.532525 -7.95398,0.536919 -0.005,0.0042 0.0387,1.094515 0.0991,2.422473 0.0604,1.327959 0.14975,3.301527 0.1985,4.38571 0.0487,1.084168 0.1372,3.047785 0.19655,4.363586 0.0594,1.315803 0.15644,3.468928 0.21573,4.784712 0.0594,1.315791 0.13984,3.101992 0.17898,3.969326 0.0646,1.431431 0.2,4.441566 0.39505,8.780892 0.0399,0.887054 0.10439,2.300865 0.14334,3.141812 0.0389,0.840934 0.0708,1.573131 0.0708,1.627081 v 0.098 l 0.3136,-0.0196 c 0.17247,-0.0107 5.63416,-0.299327 12.13707,-0.641194 z"
         id="path2"
         sodipodi:nodetypes="cssccscssssssssssssccscccscccscccscccccccccccccscscccccscssccssssccccccssscssscssccscccccccsccccccccscsscscscscccsccscccc" /></g><ellipse
       style="fill:none;fill-rule:evenodd;stroke:#000000;stroke-width:1.5;stroke-linecap:round;stroke-linejoin:bevel;stroke-dasharray:none;stroke-opacity:1"
       id="path7"
       cx="114.90484"
       cy="99.108765"
       rx="17.799212"
       ry="8.0905504" /><ellipse
       style="fill:none;fill-rule:evenodd;stroke:#000000;stroke-width:1.5;stroke-linecap:round;stroke-linejoin:bevel;stroke-dasharray:none;stroke-opacity:1"
       id="path7-3"
       cx="72.734978"
       cy="122.81712"
       rx="17.799212"
       ry="8.0905504" /><ellipse
       style="fill:none;fill-rule:evenodd;stroke:#000000;stroke-width:1.5;stroke-linecap:round;stroke-linejoin:bevel;stroke-dasharray:none;stroke-opacity:1"
       id="path7-9"
       cx="155.59209"
       cy="122.81712"
       rx="17.799212"
       ry="8.0905504" /><rect
       style="fill:none;fill-rule:evenodd;stroke:#000000;stroke-width:1.5;stroke-linecap:round;stroke-linejoin:bevel;stroke-dasharray:none;stroke-opacity:1"
       id="rect9"
       width="36.019501"
       height="24.271652"
       x="34.646622"
       y="142.62524"
       ry="3.704124" /><text
       xml:space="preserve"
       style="font-style:normal;font-variant:normal;font-weight:bold;font-stretch:normal;font-size:9.87778px;font-family:'CMU Serif';-inkscape-font-specification:'CMU Serif, Bold';font-variant-ligatures:normal;font-variant-caps:normal;font-variant-numeric:normal;font-variant-east-asian:normal;text-align:start;writing-mode:lr-tb;direction:ltr;text-anchor:start;fill:#000000;fill-opacity:1;fill-rule:evenodd;stroke:none;stroke-width:1.5;stroke-linecap:round;stroke-linejoin:bevel;stroke-dasharray:none;stroke-opacity:1"
       x="36.149193"
       y="158.18068"
       id="text9"><tspan
         sodipodi:role="line"
         id="tspan2"
         x="36.149193"
         y="158.18068">Art. 1.</tspan></text><rect
       style="fill:none;fill-rule:evenodd;stroke:#000000;stroke-width:1.5;stroke-linecap:round;stroke-linejoin:bevel;stroke-dasharray:none;stroke-opacity:1"
       id="rect9-6"
       width="36.019501"
       height="24.271652"
       x="74.862381"
       y="142.62524"
       ry="3.704124" /><text
       xml:space="preserve"
       style="font-style:normal;font-variant:normal;font-weight:bold;font-stretch:normal;font-size:9.87778px;font-family:'CMU Serif';-inkscape-font-specification:'CMU Serif, Bold';font-variant-ligatures:normal;font-variant-caps:normal;font-variant-numeric:normal;font-variant-east-asian:normal;text-align:start;writing-mode:lr-tb;direction:ltr;text-anchor:start;fill:#000000;fill-opacity:1;fill-rule:evenodd;stroke:none;stroke-width:1.5;stroke-linecap:round;stroke-linejoin:bevel;stroke-dasharray:none;stroke-opacity:1"
       x="76.364952"
       y="158.18068"
       id="text9-0"><tspan
         sodipodi:role="line"
         id="tspan3"
         x="76.364952"
         y="158.18068">Art. 2.</tspan></text><text
       xml:space="preserve"
       style="font-style:normal;font-variant:normal;font-weight:bold;font-stretch:normal;font-size:14.1111px;font-family:'CMU Serif';-inkscape-font-specification:'CMU Serif, Bold';font-variant-ligatures:normal;font-variant-caps:normal;font-variant-numeric:normal;font-variant-east-asian:normal;text-align:start;writing-mode:lr-tb;direction:ltr;text-anchor:start;fill:#000000;fill-opacity:1;fill-rule:evenodd;stroke:none;stroke-width:1.5;stroke-linecap:round;stroke-linejoin:bevel;stroke-dasharray:none;stroke-opacity:1"
       x="121.03031"
       y="155.86006"
       id="text17"><tspan
         sodipodi:role="line"
         id="tspan17"
         style="stroke-width:1.5"
         x="121.03031"
         y="155.86006">...</tspan></text><text
       xml:space="preserve"
       style="font-style:normal;font-variant:normal;font-weight:bold;font-stretch:normal;font-size:14.1111px;font-family:'CMU Serif';-inkscape-font-specification:'CMU Serif, Bold';font-variant-ligatures:normal;font-variant-caps:normal;font-variant-numeric:normal;font-variant-east-asian:normal;text-align:start;writing-mode:lr-tb;direction:ltr;text-anchor:start;fill:#000000;fill-opacity:1;fill-rule:evenodd;stroke:none;stroke-width:1.5;stroke-linecap:round;stroke-linejoin:bevel;stroke-dasharray:none;stroke-opacity:1"
       x="106.52855"
       y="123.91611"
       id="text17-0"><tspan
         sodipodi:role="line"
         id="tspan17-6"
         style="stroke-width:1.5"
         x="106.52855"
         y="123.91611">...</tspan></text><path
       style="fill:none;fill-opacity:1;fill-rule:evenodd;stroke:#000000;stroke-width:1.5;stroke-linecap:round;stroke-linejoin:bevel;stroke-dasharray:none;stroke-opacity:1"
       d="M 97.499645,101.39889 74.528637,114.54373"
       id="path17"
       sodipodi:nodetypes="cc" /><path
       style="fill:none;fill-opacity:1;fill-rule:evenodd;stroke:#000000;stroke-width:1.5;stroke-linecap:round;stroke-linejoin:bevel;stroke-dasharray:none;stroke-opacity:1"
       d="m 133.07015,101.39889 21.10364,13.02215"
       id="path18"
       sodipodi:nodetypes="cc" /><path
       style="fill:none;fill-opacity:1;fill-rule:evenodd;stroke:#000000;stroke-width:1.5;stroke-linecap:round;stroke-linejoin:bevel;stroke-dasharray:none;stroke-opacity:1"
       d="M 71.783743,131.21462 54.982937,142.315"
       id="path19"
       sodipodi:nodetypes="cc" /><path
       style="fill:none;fill-opacity:1;fill-rule:evenodd;stroke:#000000;stroke-width:1.5;stroke-linecap:round;stroke-linejoin:bevel;stroke-dasharray:none;stroke-opacity:1"
       d="m 71.793362,131.21462 17.802799,10.9203"
       id="path20"
       sodipodi:nodetypes="cc" /><path
       style="fill:none;fill-opacity:1;fill-rule:evenodd;stroke:#000000;stroke-width:1.5;stroke-linecap:round;stroke-linejoin:bevel;stroke-dasharray:none;stroke-opacity:1"
       d="m 159.08224,131.79703 10.95941,10.77471"
       id="path22"
       sodipodi:nodetypes="cc" /><text
       xml:space="preserve"
       style="font-style:normal;font-variant:normal;font-weight:500;font-stretch:normal;font-size:14.1111px;font-family:'CMU Serif';-inkscape-font-specification:'CMU Serif, Medium';font-variant-ligatures:normal;font-variant-caps:normal;font-variant-numeric:normal;font-variant-east-asian:normal;text-align:center;writing-mode:lr-tb;direction:ltr;text-anchor:middle;fill:#000000;fill-opacity:1;stroke:none;stroke-width:2.3529;stroke-linejoin:round;stroke-dasharray:none;stroke-opacity:1"
       x="70.180305"
       y="286.10083"
       id="text2-6-8-4-5-0-4"><tspan
         sodipodi:role="line"
         id="tspan36"
         x="70.180305"
         y="286.10083">Related</tspan><tspan
         sodipodi:role="line"
         id="tspan37"
         x="70.180305"
         y="303.73972">fragments</tspan><tspan
         sodipodi:role="line"
         id="tspan38"
         x="70.180305"
         y="321.37857">retrieval</tspan></text><rect
       style="fill:none;fill-opacity:1;fill-rule:evenodd;stroke:#000000;stroke-width:1.5;stroke-linecap:round;stroke-linejoin:bevel;stroke-dasharray:none;stroke-dashoffset:0;stroke-opacity:1"
       id="rect24"
       width="82.141975"
       height="52.957054"
       x="28.935173"
       y="273.15576"
       ry="3.7042155" /><text
       xml:space="preserve"
       style="font-style:normal;font-variant:normal;font-weight:500;font-stretch:normal;font-size:14.1111px;font-family:'CMU Serif';-inkscape-font-specification:'CMU Serif, Medium';font-variant-ligatures:normal;font-variant-caps:normal;font-variant-numeric:normal;font-variant-east-asian:normal;text-align:center;writing-mode:lr-tb;direction:ltr;text-anchor:middle;fill:#000000;fill-opacity:1;stroke:none;stroke-width:1.91108;stroke-linejoin:round;stroke-dasharray:none;stroke-opacity:1"
       x="168.92381"
       y="305.25238"
       id="text10"><tspan
         sodipodi:role="line"
         id="tspan10"
         style="font-style:normal;font-variant:normal;font-weight:500;font-stretch:normal;font-size:14.1111px;font-family:'CMU Serif';-inkscape-font-specification:'CMU Serif, Medium';font-variant-ligatures:normal;font-variant-caps:normal;font-variant-numeric:normal;font-variant-east-asian:normal;fill:#000000;fill-opacity:1;stroke:none;stroke-width:1.91108"
         x="168.92381"
         y="305.25238">LLM</tspan></text><rect
       style="fill:none;fill-opacity:1;fill-rule:evenodd;stroke:#000000;stroke-width:1.5;stroke-linecap:round;stroke-linejoin:bevel;stroke-dasharray:none;stroke-dashoffset:0;stroke-opacity:1"
       id="rect24-0"
       width="57.852226"
       height="26.911621"
       x="139.97359"
       y="286.95621"
       ry="3.7042155" /><text
       xml:space="preserve"
       style="font-style:normal;font-variant:normal;font-weight:bold;font-stretch:normal;font-size:14.1111px;font-family:'CMU Serif';-inkscape-font-specification:'CMU Serif, Bold';font-variant-ligatures:normal;font-variant-caps:normal;font-variant-numeric:normal;font-variant-east-asian:normal;text-align:center;writing-mode:lr-tb;direction:ltr;text-anchor:middle;fill:#000000;fill-opacity:1;stroke:none;stroke-width:2.3529;stroke-linejoin:round;stroke-dasharray:none;stroke-opacity:1"
       x="114.26221"
       y="414.13684"
       id="text2-6-8-4-5-0-48"><tspan
         sodipodi:role="line"
         id="tspan40"
         x="114.26221"
         y="414.13684">Web application</tspan></text><rect
       style="fill:none;fill-opacity:1;stroke:#000000;stroke-width:1;stroke-linejoin:round;stroke-dasharray:3, 3;stroke-dashoffset:0;stroke-opacity:1"
       id="rect6-7-8-0"
       width="189.32019"
       height="26.172523"
       x="19.854313"
       y="396.55115"
       ry="10.542672" /><path
       style="fill:none;fill-opacity:1;fill-rule:evenodd;stroke:#000000;stroke-width:2;stroke-linecap:round;stroke-linejoin:bevel;stroke-dasharray:none;stroke-dashoffset:0;stroke-opacity:1;marker-start:url(#marker28);marker-end:url(#marker28-36)"
       d="m 24.530092,320.29561 h -8.26646 a 6.0366358,6.0366358 45 0 1 -6.036636,-6.03664 v -79.3933 a 6.0366358,6.0366358 135 0 1 6.036636,-6.03664 l 72.363351,0"
       id="path40"
       sodipodi:nodetypes="cccc"
       inkscape:path-effect="#path-effect41"
       inkscape:original-d="M 24.530092,320.29561 H 10.226996 v -91.46658 h 78.399987"
       transform="translate(0,-19.579173)" /><path
       style="fill:none;fill-opacity:1;fill-rule:evenodd;stroke:#000000;stroke-width:2;stroke-linecap:round;stroke-linejoin:bevel;stroke-dasharray:none;stroke-dashoffset:0;stroke-opacity:1;marker-start:url(#marker28);marker-end:url(#marker28)"
       d="m 114.85858,376.53579 0,-2.49539 a 3.6232044,3.6232044 45 0 0 -3.6232,-3.6232 l -40.765219,0 a 3.6232044,3.6232044 45 0 1 -3.623204,-3.6232 v -8.34393"
       id="path41"
       sodipodi:nodetypes="cccc"
       inkscape:path-effect="#path-effect42"
       inkscape:original-d="M 114.85858,376.53579 V 370.4172 H 66.846957 v -11.96713"
       transform="translate(0,-27.516678)" /><path
       style="fill:none;fill-opacity:1;fill-rule:evenodd;stroke:#000000;stroke-width:2;stroke-linecap:round;stroke-linejoin:bevel;stroke-dasharray:none;stroke-dashoffset:0;stroke-opacity:1;marker-start:url(#marker28);marker-end:url(#marker28)"
       d="m 116.33586,392.17979 v -9.43153"
       id="path42"
       sodipodi:nodetypes="cc" /><rect
       style="fill:none;fill-rule:evenodd;stroke:#000000;stroke-width:1.5;stroke-linecap:round;stroke-linejoin:bevel;stroke-dasharray:none;stroke-opacity:1"
       id="rect9-8"
       width="36.019501"
       height="24.271652"
       x="151.44498"
       y="142.62524"
       ry="3.704124" /><text
       xml:space="preserve"
       style="font-style:normal;font-variant:normal;font-weight:bold;font-stretch:normal;font-size:9.87778px;font-family:'CMU Serif';-inkscape-font-specification:'CMU Serif, Bold';font-variant-ligatures:normal;font-variant-caps:normal;font-variant-numeric:normal;font-variant-east-asian:normal;text-align:start;writing-mode:lr-tb;direction:ltr;text-anchor:start;fill:#000000;fill-opacity:1;fill-rule:evenodd;stroke:none;stroke-width:1.5;stroke-linecap:round;stroke-linejoin:bevel;stroke-dasharray:none;stroke-opacity:1"
       x="152.94754"
       y="158.18068"
       id="text9-7"><tspan
         sodipodi:role="line"
         id="tspan4"
         x="152.94754"
         y="158.18068">Art. n.</tspan></text></g></svg>
